<svg width="640" height="400" viewBox="0 0 640 400" fill="none" xmlns="http://www.w3.org/2000/svg">
<path d="M519.179 119.937C367.027 83.602 281.158 116.402 281.158 116.402L287.983 123.373L519.179 119.937Z" fill="#585953"/>
<path d="M456.531 274.577C460.073 275.444 471.311 275.821 471.311 275.821L559.487 274.577C559.487 274.577 569.224 222.018 510.927 216.537C510.927 216.537 463.174 212.053 456.531 274.577Z" fill="#151611"/>
<path d="M113.444 276.569H219.725C219.725 276.569 222.299 214.295 166.045 214.295C109.79 214.295 113.444 276.569 113.444 276.569Z" fill="#151611"/>
<path d="M166.086 299.197C183.719 299.197 198.013 284.902 198.013 267.269C198.013 249.636 183.719 235.342 166.086 235.342C148.453 235.342 134.158 249.636 134.158 267.269C134.158 284.902 148.453 299.197 166.086 299.197Z" fill="#585953"/>
<path d="M166.086 287.857C177.456 287.857 186.673 278.64 186.673 267.27C186.673 255.9 177.456 246.683 166.086 246.683C154.716 246.683 145.5 255.9 145.5 267.27C145.5 278.64 154.716 287.857 166.086 287.857Z" fill="#151611"/>
<path d="M176.645 267.27C176.645 267.039 176.592 266.826 176.577 266.599L197.782 259.71L196.166 254.736L174.979 261.619C174.739 261.244 174.46 260.901 174.174 260.559L187.301 242.491L183.068 239.416L169.955 257.466C169.549 257.306 169.128 257.186 168.701 257.077V234.721H163.47V257.077C163.049 257.186 162.633 257.304 162.233 257.462L149.086 239.368L144.854 242.443L158.006 260.546C157.73 260.877 157.454 261.203 157.22 261.568L135.948 254.656L134.332 259.631L155.6 266.54C155.583 266.785 155.526 267.019 155.526 267.27C155.526 267.463 155.572 267.643 155.583 267.833L134.306 274.746L135.923 279.721L157.143 272.826C157.376 273.201 157.643 273.546 157.921 273.888L144.787 291.965L149.02 295.04L162.101 277.036C162.513 277.206 162.951 277.32 163.388 277.436V299.735H168.618V277.487C169.063 277.377 169.5 277.248 169.92 277.084L183 295.09L187.233 292.015L174.15 274.01C174.443 273.66 174.728 273.31 174.975 272.925L196.138 279.802L197.755 274.827L176.575 267.945C176.592 267.717 176.645 267.5 176.645 267.27Z" fill="#FAF3E3"/>
<path d="M169.657 267.227C169.657 265.234 168.041 263.615 166.045 263.615C164.05 263.615 162.433 265.232 162.433 267.227C162.433 269.223 164.05 270.84 166.045 270.84C168.039 270.84 169.657 269.223 169.657 267.227Z" fill="#585953"/>
<path d="M166.086 224.757C142.607 224.757 123.574 243.79 123.574 267.269C123.574 290.748 142.607 309.781 166.086 309.781C189.565 309.781 208.598 290.748 208.598 267.269C208.6 243.79 189.565 224.757 166.086 224.757ZM166.086 299.197C148.452 299.197 134.158 284.903 134.158 267.269C134.158 249.636 148.452 235.342 166.086 235.342C183.72 235.342 198.014 249.636 198.014 267.269C198.014 284.903 183.72 299.197 166.086 299.197Z" fill="#151611"/>
<path d="M166.086 224.758C154.936 224.765 143.918 229.384 136.119 237.303C128.285 245.195 123.885 256.247 124.03 267.27C124.104 278.307 128.755 289.128 136.579 296.774C144.323 304.511 155.176 308.942 166.084 308.863C176.992 308.936 187.843 304.511 195.587 296.773C203.406 289.123 208.06 278.305 208.134 267.27C208.281 256.247 203.881 245.199 196.049 237.305C188.254 229.384 177.235 224.765 166.086 224.758ZM166.086 224.758C177.233 224.675 188.329 229.208 196.242 237.115C204.236 244.928 208.99 255.995 209.061 267.27C209.209 278.53 204.711 289.828 196.704 297.888C188.74 305.976 177.474 310.702 166.086 310.702C154.699 310.696 143.433 305.976 135.469 297.886C127.47 289.824 122.966 278.531 123.115 267.27C123.187 255.995 127.941 244.93 135.931 237.115C143.842 229.208 154.938 224.675 166.086 224.758Z" fill="#FAF3E3"/>
<path d="M166.086 299.197C157.714 299.271 149.371 295.876 143.415 289.94C137.394 284.08 133.781 275.768 133.7 267.269C133.56 258.784 136.923 250.245 142.954 244.138C148.964 238.02 157.475 234.438 166.086 234.423C174.698 234.432 183.209 238.019 189.218 244.137C195.255 250.24 198.613 258.786 198.475 267.269C198.394 275.77 194.78 284.082 188.756 289.94C182.802 295.876 174.457 299.271 166.086 299.197ZM166.086 299.197C174.459 299.18 182.725 295.699 188.567 289.751C194.429 283.811 197.689 275.516 197.551 267.269C197.468 259.009 193.954 250.945 188.105 245.25C182.316 239.482 174.217 236.196 166.086 236.26C157.952 236.189 149.853 239.482 144.065 245.248C138.21 250.939 134.699 259.009 134.616 267.269C134.48 275.516 137.739 283.815 143.604 289.751C149.446 295.699 157.712 299.18 166.086 299.197Z" fill="#FAF3E3"/>
<path d="M510.97 299.197C528.603 299.197 542.897 284.902 542.897 267.269C542.897 249.636 528.603 235.342 510.97 235.342C493.336 235.342 479.042 249.636 479.042 267.269C479.042 284.902 493.336 299.197 510.97 299.197Z" fill="#585953"/>
<path d="M510.97 287.857C522.34 287.857 531.557 278.64 531.557 267.27C531.557 255.9 522.34 246.683 510.97 246.683C499.6 246.683 490.383 255.9 490.383 267.27C490.383 278.64 499.6 287.857 510.97 287.857Z" fill="#151611"/>
<path d="M521.528 267.27C521.528 267.039 521.475 266.826 521.46 266.599L542.666 259.71L541.049 254.736L519.862 261.619C519.623 261.244 519.343 260.901 519.06 260.559L532.186 242.491L527.954 239.416L514.84 257.466C514.435 257.306 514.013 257.186 513.586 257.077V234.721H508.356V257.077C507.934 257.186 507.518 257.304 507.118 257.462L493.971 239.368L489.739 242.443L502.891 260.546C502.615 260.877 502.339 261.203 502.105 261.568L480.834 254.656L479.217 259.631L500.485 266.54C500.469 266.785 500.411 267.019 500.411 267.27C500.411 267.463 500.457 267.643 500.469 267.833L479.191 274.746L480.808 279.721L502.028 272.826C502.262 273.201 502.529 273.546 502.807 273.888L489.673 291.965L493.905 295.04L506.986 277.036C507.398 277.206 507.836 277.32 508.273 277.436V299.735H513.503V277.487C513.949 277.377 514.385 277.248 514.805 277.084L527.886 295.09L532.118 292.015L519.036 274.01C519.328 273.66 519.614 273.31 519.86 272.925L541.023 279.802L542.64 274.827L521.46 267.945C521.475 267.717 521.528 267.5 521.528 267.27Z" fill="#FAF3E3"/>
<path d="M514.539 267.227C514.539 265.234 512.923 263.615 510.927 263.615C508.931 263.615 507.315 265.232 507.315 267.227C507.315 269.223 508.931 270.84 510.927 270.84C512.923 270.84 514.539 269.223 514.539 267.227Z" fill="#585953"/>
<path d="M510.969 224.757C487.49 224.757 468.458 243.79 468.458 267.269C468.458 290.748 487.49 309.781 510.969 309.781C534.448 309.781 553.481 290.748 553.481 267.269C553.481 243.79 534.448 224.757 510.969 224.757ZM510.969 299.197C493.336 299.197 479.042 284.903 479.042 267.269C479.042 249.636 493.336 235.342 510.969 235.342C528.603 235.342 542.897 249.636 542.897 267.269C542.897 284.903 528.603 299.197 510.969 299.197Z" fill="#151611"/>
<path d="M510.97 224.758C499.82 224.765 488.801 229.384 481.003 237.303C473.169 245.195 468.769 256.247 468.914 267.27C468.988 278.307 473.639 289.128 481.463 296.774C489.208 304.511 500.06 308.942 510.968 308.863C521.876 308.936 532.727 304.511 540.471 296.773C548.29 289.123 552.944 278.305 553.018 267.27C553.165 256.247 548.765 245.199 540.933 237.305C533.138 229.384 522.119 224.765 510.97 224.758ZM510.97 224.758C522.117 224.675 533.213 229.208 541.124 237.115C549.118 244.928 553.872 255.995 553.944 267.27C554.093 278.53 549.593 289.828 541.586 297.888C533.622 305.976 522.357 310.702 510.968 310.702C499.581 310.696 488.315 305.976 480.351 297.886C472.352 289.824 467.848 278.531 467.996 267.27C468.067 255.995 472.821 244.93 480.811 237.115C488.726 229.208 499.822 224.675 510.97 224.758Z" fill="#FAF3E3"/>
<path d="M510.969 299.197C502.598 299.271 494.254 295.876 488.299 289.94C482.278 284.08 478.664 275.768 478.583 267.269C478.443 258.784 481.807 250.245 487.838 244.138C493.848 238.02 502.359 234.438 510.969 234.423C519.582 234.432 528.093 238.019 534.102 244.137C540.139 250.24 543.497 258.786 543.359 267.269C543.278 275.77 539.664 284.082 533.64 289.94C527.684 295.876 519.341 299.271 510.969 299.197ZM510.969 299.197C519.342 299.18 527.609 295.699 533.45 289.751C539.312 283.811 542.573 275.516 542.435 267.269C542.352 259.009 538.837 250.945 532.988 245.25C527.2 239.482 519.101 236.196 510.969 236.26C502.836 236.189 494.737 239.482 488.948 245.248C483.094 250.939 479.583 259.009 479.5 267.269C479.364 275.516 482.624 283.815 488.488 289.751C494.33 295.699 502.596 299.18 510.969 299.197Z" fill="#FAF3E3"/>
<path d="M468.458 111.647C469.214 111.743 479.042 100.324 490.383 89" stroke="#151611" stroke-width="0.5" stroke-miterlimit="10" stroke-linecap="round" stroke-linejoin="round"/>
<path d="M297.692 119.86C288.207 123.035 278.601 126.964 269.296 131.845C218.481 158.498 200.299 169.682 193.82 169.957C189.087 170.456 175.137 170.456 169.658 168.462C169.242 168.311 168.944 168.158 168.713 168.005C168.198 168.3 167.914 168.462 167.914 168.462C167.914 168.462 168.198 168.298 168.713 168.005C166.782 166.726 170.88 165.422 173.646 164.732C65.2184 189.091 58.8116 221.602 58.8116 221.602C57.3424 232.157 58.2372 254.643 58.644 263.029C58.7398 264.992 60.0009 266.702 61.8475 267.373L99.9334 281.168C100.633 281.42 101.375 281.532 102.117 281.497L114.942 280.886V268.457C114.942 240.178 137.382 216.355 165.661 216.123C190.576 215.919 211.413 233.528 216.204 256.98C216.204 256.98 218.569 269.759 218.567 279.89C218.567 279.89 227.119 281.302 235.008 279.142L450.393 278.229C450.393 278.229 455.707 278.894 459.028 278.561C460.689 275.571 463.134 259.137 463.134 259.137C467.002 236.213 486.948 218.75 510.973 218.75C537.77 218.75 559.493 240.473 559.493 267.269C559.493 270.372 559.202 273.406 558.644 276.348C558.644 276.348 575.19 267.603 579.174 261.374C579.174 261.374 583.159 247.675 581.665 240.2L580.669 220.273L573.444 206.074C573.444 206.074 575.436 182.411 569.957 171.45C569.453 170.441 568.726 169.24 567.82 167.891L542.629 163.842C541.839 163.715 541.137 163.283 540.673 162.631C536.664 156.994 517.299 129.658 517.15 127.277C517.036 125.458 520.343 123.558 522.443 122.54L523.627 120.883C523.627 120.883 452.137 104.693 379.899 106.685C379.894 106.685 340.002 105.696 297.692 119.86Z" fill="#585953"/>
<path d="M250.742 150.994C248.575 156.637 243.516 170.679 240.82 185.1C272.058 181.85 316.37 177.448 362.698 173.512L372.997 117.511C327.052 117.919 284.803 132.307 250.742 150.994Z" fill="#FAF3E3"/>
<path d="M203.113 183.779C200.943 185.65 202.46 189.2 205.308 188.887C213.003 188.043 225.305 186.712 240.818 185.099C243.514 170.678 248.573 156.637 250.74 150.994C232.197 161.168 216.071 172.612 203.113 183.779Z" fill="#151611"/>
<path d="M374.994 117.479C374.326 117.479 373.663 117.503 372.997 117.509L362.698 173.51C370.423 172.855 378.201 172.212 385.985 171.59L387.565 117.56C383.516 117.509 379.339 117.479 374.994 117.479Z" fill="#151611"/>
<path d="M488.26 131.745C486.435 128.328 483.132 125.963 479.331 125.215C468.058 123.002 440.247 118.228 387.563 117.56L385.983 171.59C426.069 168.384 466.263 165.724 499.542 164.641C499.542 164.641 495.064 144.487 488.26 131.745Z" fill="#FAF3E3"/>
<path d="M193.82 169.957C200.298 169.682 218.481 158.498 269.296 131.845C278.602 126.964 288.207 123.035 297.692 119.86L286.771 116.457C285.609 116.095 284.372 116.082 283.207 116.433C233.776 131.362 176.065 163.815 168.711 168.005C168.942 168.158 169.24 168.311 169.656 168.462C175.137 170.454 189.086 170.454 193.82 169.957Z" fill="#FAF3E3"/>
<path d="M193.82 169.956C196.225 169.712 198.482 168.763 200.684 167.821C202.889 166.86 205.049 165.794 207.203 164.717C211.496 162.541 215.74 160.263 219.983 157.99C228.473 153.446 236.886 148.755 245.344 144.147L270.763 130.392C279.332 125.916 288.272 122.161 297.433 119.077L297.45 120.644L289.034 118.057L286.93 117.411C286.215 117.173 285.676 117.059 285.021 117.05C284.371 117.048 283.817 117.14 283.13 117.381L281.042 118.059C275.462 119.819 269.937 121.754 264.415 123.702C253.406 127.704 242.593 132.239 231.838 136.906C221.09 141.591 210.461 146.56 199.94 151.752C189.426 156.957 178.981 162.32 168.76 168.086L168.765 167.922C170.606 168.883 172.766 169.178 174.833 169.496C176.927 169.778 179.035 169.942 181.144 170.052C185.366 170.247 189.604 170.301 193.82 169.956ZM193.82 169.956C189.608 170.334 185.366 170.314 181.141 170.15C179.027 170.056 176.916 169.907 174.815 169.642C172.729 169.332 170.592 169.076 168.658 168.086L168.509 168.009L168.664 167.92C189.085 156.34 209.9 145.421 231.258 135.611C241.934 130.703 252.793 126.182 263.802 122.043L272.109 119.068C274.882 118.086 277.713 117.267 280.512 116.361L282.616 115.697C283.314 115.45 284.225 115.283 285.045 115.306C285.86 115.306 286.768 115.526 287.442 115.761L289.54 116.424L297.936 119.073L300.357 119.837L297.95 120.64C288.85 123.672 279.915 127.226 271.318 131.489L245.655 144.739L220.083 158.183C215.821 160.423 211.561 162.67 207.247 164.814C205.086 165.875 202.917 166.924 200.702 167.871C198.495 168.797 196.226 169.73 193.82 169.956Z" fill="#585953"/>
<path d="M67.2819 218.447C76.0748 217.585 100.239 214.947 108.129 211.305L112.099 208.021C114.218 206.266 115.343 203.573 115.05 200.837C114.969 200.082 114.868 199.29 114.741 198.513C114.308 195.868 112.436 193.682 109.899 192.815L105.74 191.392C104.681 191.03 103.542 191.024 102.479 191.376C95.9656 193.533 72.2086 202.177 65.3304 215.519C64.6031 216.933 65.6967 218.603 67.2819 218.447Z" fill="#FAF3E3"/>
<path d="M517.146 127.277C517.296 129.659 536.66 156.994 540.67 162.631C541.134 163.283 541.835 163.715 542.625 163.842L567.816 167.891C558.868 154.587 532.103 126.697 522.377 122.627L522.439 122.54C520.339 123.56 517.032 125.458 517.146 127.277Z" fill="#B63515"/>
<path d="M228.801 186.359C219.959 211.349 225.3 246.018 228.415 261.388C229.345 265.972 233.4 269.234 238.077 269.19L452.379 267.227C457.509 230.009 484.618 215.241 496.705 210.445C500.488 208.943 503.345 205.777 505.01 200.244L509.064 186.771C510.299 182.666 510.45 178.297 509.443 174.131C502.565 145.682 494.772 132.637 493.017 129.938C492.656 129.382 492.338 128.809 491.982 128.25C489.376 124.148 485.182 121.288 480.29 120.327C453.825 115.132 418.416 112.499 374.994 112.499C328.02 112.501 287.31 126.629 256.53 142.374C255.414 142.945 254.506 143.83 253.893 144.924C252.827 146.82 251.194 149.795 250.741 150.996" stroke="#151611" stroke-width="0.5" stroke-miterlimit="10"/>
<path d="M373.308 172.621C373.308 172.621 366.367 200.331 367.028 268.01" stroke="#151611" stroke-width="0.5" stroke-miterlimit="10"/>
<path d="M205.851 165.446L212.422 176.152" stroke="#151611" stroke-width="0.5" stroke-miterlimit="10"/>
<path d="M109.654 210.044C109.654 210.044 127.516 222.938 138.034 224.756" stroke="#151611" stroke-width="0.5" stroke-miterlimit="10"/>
<path d="M573.669 202.188L551.035 212.152C550.807 212.253 550.588 212.371 550.38 212.507L534.694 222.709" stroke="#151611" stroke-width="0.5" stroke-miterlimit="10"/>
<path d="M63.543 234.721C70.3715 234.83 77.176 235.255 83.9842 235.611L104.394 236.962C100.981 237.131 97.5639 237.069 94.1542 236.982C90.7428 236.888 87.3368 236.695 83.929 236.527C77.1226 236.064 70.3181 235.587 63.543 234.721Z" fill="#151611"/>
<path d="M63.543 250.164L83.3325 253.371C86.6225 253.942 89.929 254.411 93.2282 254.921L103.148 256.391C96.4537 256.149 89.802 255.286 83.1871 254.277C76.5887 253.163 70.0032 251.931 63.543 250.164Z" fill="#151611"/>
<path d="M195.064 169.949L174.104 175.289C167.124 177.093 160.151 178.908 153.21 180.847C146.247 182.706 139.33 184.728 132.446 186.843C125.574 188.988 118.697 191.173 112.064 194.01C118.561 190.862 125.384 188.436 132.231 186.169C139.085 183.908 146.017 181.891 152.967 179.959C159.935 178.092 166.915 176.262 173.935 174.604C180.951 172.928 187.993 171.367 195.064 169.949Z" fill="#151611"/>
<path d="M246.877 246.683L269.263 245.116L291.665 243.803C306.601 242.966 321.541 242.187 336.487 241.515C351.437 240.944 366.39 240.434 381.348 240.119C388.827 239.945 396.307 239.829 403.787 239.771C411.269 239.742 418.749 239.832 426.228 239.954C418.747 239.981 411.269 240.044 403.793 240.223C396.316 240.346 388.839 240.504 381.365 240.733C366.414 241.149 351.47 241.767 336.528 242.434C321.582 243.003 306.638 243.68 291.698 244.413L246.877 246.683Z" fill="#151611"/>
<path d="M523.789 199.848C515.924 198.966 507.939 199.401 500.221 200.927C492.498 202.45 485.035 205.346 478.519 209.733C475.299 211.97 472.201 214.418 469.479 217.261C466.683 220.026 464.218 223.115 461.957 226.337C459.691 229.557 457.68 232.965 455.953 236.516C454.197 240.049 452.672 243.715 451.551 247.511C453.551 239.847 456.934 232.534 461.371 225.938C463.562 222.618 466.079 219.507 468.881 216.675C471.621 213.778 474.743 211.266 478.004 208.972C484.674 204.574 492.253 201.627 500.087 200.237C507.91 198.813 515.961 198.629 523.789 199.848Z" fill="#151611"/>
<path d="M539.414 219.634C537.013 218.612 534.543 217.771 532.029 217.09C529.535 216.353 526.996 215.781 524.442 215.322C519.334 214.422 514.129 214.045 508.968 214.409C503.789 214.619 498.703 215.882 493.89 217.742C492.701 218.248 491.489 218.717 490.311 219.255L486.933 221.184C486.373 221.512 485.777 221.786 485.246 222.16L483.676 223.316L480.526 225.636C484.464 222.254 488.676 218.968 493.621 217.088C498.458 215.059 503.651 213.78 508.906 213.494C514.155 213.201 519.437 213.573 524.573 214.632C529.706 215.702 534.732 217.318 539.414 219.634Z" fill="#151611"/>
<path d="M522.128 180.386L431.264 185.431C416.12 186.243 400.977 187.101 385.842 188.062C378.275 188.557 370.71 189.07 363.149 189.645C355.584 190.17 348.026 190.785 340.48 191.541C355.538 189.693 370.671 188.518 385.801 187.45C400.933 186.388 416.072 185.422 431.213 184.514L476.661 182.253L499.389 181.218L522.128 180.386Z" fill="#151611"/>
<path d="M366.872 187.228L361.611 185.304C361.239 185.168 360.841 185.114 360.447 185.146L349.241 186.026C348.922 186.051 348.609 186.131 348.316 186.263L342.086 189.087C341.024 189.57 340.499 190.551 340.479 191.541L368.616 189.378C368.456 188.41 367.819 187.574 366.872 187.228Z" fill="#FAF3E3"/>
<path d="M340.479 191.543C340.457 192.604 341.014 193.672 342.165 194.15L348.165 196.647C348.5 196.787 348.861 196.858 349.226 196.858H361.57C362.293 196.858 362.987 196.575 363.503 196.067L367.859 191.79C368.387 191.271 368.685 190.562 368.685 189.82C368.685 189.667 368.641 189.525 368.617 189.378L340.479 191.543Z" fill="#151611"/>
<path d="M497.731 179.276L492.47 177.352C492.098 177.216 491.7 177.162 491.306 177.194L480.099 178.074C479.781 178.1 479.468 178.179 479.175 178.311L472.945 181.135C471.883 181.618 471.358 182.599 471.338 183.59L499.475 181.426C499.315 180.456 498.676 179.62 497.731 179.276Z" fill="#FAF3E3"/>
<path d="M471.338 183.59C471.315 184.65 471.873 185.718 473.024 186.197L479.024 188.693C479.359 188.833 479.72 188.905 480.084 188.905H492.429C493.152 188.905 493.846 188.621 494.364 188.113L498.72 183.837C499.248 183.317 499.546 182.609 499.546 181.867C499.546 181.714 499.502 181.572 499.478 181.425L471.338 183.59Z" fill="#151611"/>
<path d="M510.92 390V383.455H511.926V390H510.92ZM511.432 382.364C511.236 382.364 511.067 382.297 510.925 382.163C510.786 382.03 510.716 381.869 510.716 381.682C510.716 381.494 510.786 381.334 510.925 381.2C511.067 381.067 511.236 381 511.432 381C511.628 381 511.795 381.067 511.935 381.2C512.077 381.334 512.148 381.494 512.148 381.682C512.148 381.869 512.077 382.03 511.935 382.163C511.795 382.297 511.628 382.364 511.432 382.364ZM513.768 390V383.455H514.74V384.477H514.825C514.961 384.128 515.181 383.857 515.485 383.663C515.789 383.467 516.154 383.369 516.581 383.369C517.012 383.369 517.372 383.467 517.659 383.663C517.949 383.857 518.174 384.128 518.336 384.477H518.404C518.572 384.139 518.824 383.871 519.159 383.672C519.494 383.47 519.896 383.369 520.365 383.369C520.95 383.369 521.429 383.553 521.801 383.919C522.173 384.283 522.359 384.849 522.359 385.619V390H521.353V385.619C521.353 385.136 521.221 384.791 520.957 384.584C520.693 384.376 520.382 384.273 520.024 384.273C519.564 384.273 519.207 384.412 518.954 384.69C518.701 384.966 518.575 385.315 518.575 385.739V390H517.552V385.517C517.552 385.145 517.431 384.845 517.19 384.618C516.949 384.388 516.637 384.273 516.257 384.273C515.995 384.273 515.751 384.342 515.524 384.482C515.299 384.621 515.118 384.814 514.978 385.061C514.842 385.305 514.774 385.588 514.774 385.909V390H513.768ZM526.124 390.153C525.709 390.153 525.333 390.075 524.995 389.919C524.657 389.76 524.388 389.531 524.189 389.233C523.99 388.932 523.891 388.568 523.891 388.142C523.891 387.767 523.965 387.463 524.113 387.23C524.26 386.994 524.458 386.81 524.705 386.676C524.952 386.543 525.225 386.443 525.523 386.378C525.824 386.31 526.127 386.256 526.431 386.216C526.828 386.165 527.151 386.126 527.398 386.101C527.648 386.072 527.83 386.026 527.944 385.96C528.06 385.895 528.118 385.781 528.118 385.619V385.585C528.118 385.165 528.003 384.838 527.773 384.605C527.546 384.372 527.201 384.256 526.738 384.256C526.257 384.256 525.881 384.361 525.608 384.571C525.336 384.781 525.144 385.006 525.033 385.244L524.078 384.903C524.249 384.506 524.476 384.196 524.76 383.974C525.047 383.75 525.36 383.594 525.698 383.506C526.039 383.415 526.374 383.369 526.703 383.369C526.914 383.369 527.155 383.395 527.428 383.446C527.703 383.494 527.969 383.595 528.225 383.749C528.483 383.902 528.698 384.134 528.868 384.443C529.039 384.753 529.124 385.168 529.124 385.688V390H528.118V389.114H528.067C527.999 389.256 527.885 389.408 527.726 389.57C527.567 389.732 527.355 389.869 527.091 389.983C526.827 390.097 526.505 390.153 526.124 390.153ZM526.277 389.25C526.675 389.25 527.01 389.172 527.283 389.016C527.559 388.859 527.766 388.658 527.905 388.411C528.047 388.163 528.118 387.903 528.118 387.631V386.71C528.076 386.761 527.982 386.808 527.837 386.851C527.695 386.891 527.53 386.926 527.343 386.957C527.158 386.986 526.978 387.011 526.801 387.034C526.628 387.054 526.488 387.071 526.38 387.085C526.118 387.119 525.874 387.175 525.647 387.251C525.422 387.325 525.24 387.437 525.101 387.588C524.965 387.736 524.897 387.937 524.897 388.193C524.897 388.543 525.026 388.807 525.284 388.986C525.546 389.162 525.877 389.25 526.277 389.25ZM533.602 392.591C533.116 392.591 532.698 392.528 532.349 392.403C531.999 392.281 531.708 392.119 531.475 391.918C531.245 391.719 531.062 391.506 530.925 391.278L531.727 390.716C531.817 390.835 531.933 390.972 532.072 391.125C532.211 391.281 532.401 391.416 532.643 391.53C532.887 391.646 533.207 391.705 533.602 391.705C534.13 391.705 534.566 391.577 534.91 391.321C535.254 391.065 535.425 390.665 535.425 390.119V388.79H535.34C535.266 388.909 535.161 389.057 535.025 389.233C534.891 389.406 534.698 389.561 534.445 389.697C534.195 389.831 533.857 389.898 533.431 389.898C532.903 389.898 532.428 389.773 532.008 389.523C531.59 389.273 531.259 388.909 531.015 388.432C530.773 387.955 530.653 387.375 530.653 386.693C530.653 386.023 530.771 385.439 531.006 384.942C531.242 384.442 531.57 384.055 531.991 383.783C532.411 383.507 532.897 383.369 533.448 383.369C533.874 383.369 534.212 383.44 534.462 383.582C534.715 383.722 534.908 383.881 535.042 384.06C535.178 384.236 535.283 384.381 535.357 384.494H535.46V383.455H536.431V390.188C536.431 390.75 536.303 391.207 536.048 391.56C535.795 391.915 535.454 392.175 535.025 392.339C534.599 392.507 534.124 392.591 533.602 392.591ZM533.567 388.994C533.971 388.994 534.312 388.902 534.59 388.717C534.869 388.533 535.08 388.267 535.225 387.92C535.37 387.574 535.442 387.159 535.442 386.676C535.442 386.205 535.371 385.788 535.229 385.428C535.087 385.067 534.877 384.784 534.599 384.58C534.32 384.375 533.977 384.273 533.567 384.273C533.141 384.273 532.786 384.381 532.502 384.597C532.221 384.812 532.009 385.102 531.867 385.466C531.728 385.83 531.658 386.233 531.658 386.676C531.658 387.131 531.729 387.533 531.871 387.882C532.016 388.229 532.229 388.501 532.511 388.7C532.795 388.896 533.147 388.994 533.567 388.994ZM541.016 390.136C540.386 390.136 539.842 389.997 539.384 389.719C538.93 389.438 538.579 389.045 538.332 388.543C538.087 388.037 537.965 387.449 537.965 386.778C537.965 386.108 538.087 385.517 538.332 385.006C538.579 384.491 538.923 384.091 539.363 383.804C539.806 383.514 540.323 383.369 540.914 383.369C541.255 383.369 541.592 383.426 541.924 383.54C542.256 383.653 542.559 383.838 542.832 384.094C543.104 384.347 543.322 384.682 543.484 385.099C543.646 385.517 543.727 386.031 543.727 386.642V387.068H538.681V386.199H542.704C542.704 385.83 542.63 385.5 542.482 385.21C542.337 384.92 542.13 384.692 541.86 384.524C541.593 384.357 541.278 384.273 540.914 384.273C540.513 384.273 540.167 384.372 539.874 384.571C539.585 384.767 539.362 385.023 539.205 385.338C539.049 385.653 538.971 385.991 538.971 386.352V386.932C538.971 387.426 539.056 387.845 539.227 388.189C539.4 388.53 539.64 388.79 539.947 388.969C540.254 389.145 540.61 389.233 541.016 389.233C541.281 389.233 541.519 389.196 541.732 389.122C541.948 389.045 542.134 388.932 542.29 388.781C542.447 388.628 542.567 388.437 542.653 388.21L543.624 388.483C543.522 388.812 543.35 389.102 543.109 389.352C542.867 389.599 542.569 389.793 542.214 389.932C541.859 390.068 541.46 390.136 541.016 390.136ZM549.773 390V390.938H544.319V390H549.773ZM551.233 392.455V383.455H552.205V384.494H552.324C552.398 384.381 552.5 384.236 552.631 384.06C552.764 383.881 552.955 383.722 553.202 383.582C553.452 383.44 553.79 383.369 554.216 383.369C554.767 383.369 555.253 383.507 555.673 383.783C556.094 384.058 556.422 384.449 556.658 384.955C556.893 385.46 557.011 386.057 557.011 386.744C557.011 387.438 556.893 388.038 556.658 388.547C556.422 389.053 556.095 389.445 555.678 389.723C555.26 389.999 554.778 390.136 554.233 390.136C553.813 390.136 553.476 390.067 553.223 389.928C552.97 389.786 552.776 389.625 552.639 389.446C552.503 389.264 552.398 389.114 552.324 388.994H552.239V392.455H551.233ZM552.222 386.727C552.222 387.222 552.294 387.658 552.439 388.036C552.584 388.411 552.795 388.705 553.074 388.918C553.352 389.128 553.693 389.233 554.097 389.233C554.517 389.233 554.868 389.122 555.149 388.901C555.433 388.676 555.646 388.375 555.788 387.997C555.933 387.616 556.006 387.193 556.006 386.727C556.006 386.267 555.935 385.852 555.793 385.483C555.653 385.111 555.442 384.817 555.158 384.601C554.876 384.382 554.523 384.273 554.097 384.273C553.688 384.273 553.344 384.376 553.065 384.584C552.787 384.788 552.577 385.075 552.435 385.445C552.293 385.811 552.222 386.239 552.222 386.727ZM559.551 381.273V390H558.545V381.273H559.551ZM563.319 390.153C562.904 390.153 562.528 390.075 562.19 389.919C561.852 389.76 561.583 389.531 561.385 389.233C561.186 388.932 561.086 388.568 561.086 388.142C561.086 387.767 561.16 387.463 561.308 387.23C561.456 386.994 561.653 386.81 561.9 386.676C562.147 386.543 562.42 386.443 562.718 386.378C563.02 386.31 563.322 386.256 563.626 386.216C564.024 386.165 564.346 386.126 564.593 386.101C564.843 386.072 565.025 386.026 565.139 385.96C565.255 385.895 565.314 385.781 565.314 385.619V385.585C565.314 385.165 565.199 384.838 564.968 384.605C564.741 384.372 564.396 384.256 563.933 384.256C563.453 384.256 563.076 384.361 562.804 384.571C562.531 384.781 562.339 385.006 562.228 385.244L561.274 384.903C561.444 384.506 561.672 384.196 561.956 383.974C562.243 383.75 562.555 383.594 562.893 383.506C563.234 383.415 563.569 383.369 563.899 383.369C564.109 383.369 564.35 383.395 564.623 383.446C564.899 383.494 565.164 383.595 565.42 383.749C565.679 383.902 565.893 384.134 566.064 384.443C566.234 384.753 566.319 385.168 566.319 385.688V390H565.314V389.114H565.262C565.194 389.256 565.081 389.408 564.922 389.57C564.762 389.732 564.551 389.869 564.287 389.983C564.022 390.097 563.7 390.153 563.319 390.153ZM563.473 389.25C563.87 389.25 564.206 389.172 564.478 389.016C564.754 388.859 564.961 388.658 565.1 388.411C565.243 388.163 565.314 387.903 565.314 387.631V386.71C565.271 386.761 565.177 386.808 565.032 386.851C564.89 386.891 564.725 386.926 564.538 386.957C564.353 386.986 564.173 387.011 563.997 387.034C563.824 387.054 563.683 387.071 563.575 387.085C563.314 387.119 563.069 387.175 562.842 387.251C562.618 387.325 562.436 387.437 562.297 387.588C562.16 387.736 562.092 387.937 562.092 388.193C562.092 388.543 562.221 388.807 562.48 388.986C562.741 389.162 563.072 389.25 563.473 389.25ZM570.814 390.136C570.2 390.136 569.672 389.991 569.229 389.702C568.786 389.412 568.445 389.013 568.206 388.504C567.967 387.996 567.848 387.415 567.848 386.761C567.848 386.097 567.97 385.51 568.214 385.001C568.462 384.49 568.805 384.091 569.246 383.804C569.689 383.514 570.206 383.369 570.797 383.369C571.257 383.369 571.672 383.455 572.041 383.625C572.411 383.795 572.713 384.034 572.949 384.341C573.185 384.648 573.331 385.006 573.388 385.415H572.382C572.305 385.116 572.135 384.852 571.871 384.622C571.609 384.389 571.257 384.273 570.814 384.273C570.422 384.273 570.078 384.375 569.783 384.58C569.49 384.781 569.261 385.067 569.097 385.436C568.935 385.803 568.854 386.233 568.854 386.727C568.854 387.233 568.933 387.673 569.092 388.048C569.254 388.423 569.482 388.714 569.774 388.922C570.07 389.129 570.416 389.233 570.814 389.233C571.075 389.233 571.312 389.188 571.526 389.097C571.739 389.006 571.919 388.875 572.067 388.705C572.214 388.534 572.32 388.33 572.382 388.091H573.388C573.331 388.477 573.19 388.825 572.966 389.135C572.744 389.442 572.45 389.686 572.084 389.868C571.72 390.047 571.297 390.136 570.814 390.136ZM577.602 390.136C576.972 390.136 576.428 389.997 575.97 389.719C575.516 389.438 575.165 389.045 574.918 388.543C574.673 388.037 574.551 387.449 574.551 386.778C574.551 386.108 574.673 385.517 574.918 385.006C575.165 384.491 575.509 384.091 575.949 383.804C576.392 383.514 576.909 383.369 577.5 383.369C577.841 383.369 578.178 383.426 578.51 383.54C578.842 383.653 579.145 383.838 579.418 384.094C579.69 384.347 579.908 384.682 580.07 385.099C580.232 385.517 580.312 386.031 580.312 386.642V387.068H575.267V386.199H579.29C579.29 385.83 579.216 385.5 579.068 385.21C578.923 384.92 578.716 384.692 578.446 384.524C578.179 384.357 577.864 384.273 577.5 384.273C577.099 384.273 576.753 384.372 576.46 384.571C576.17 384.767 575.947 385.023 575.791 385.338C575.635 385.653 575.557 385.991 575.557 386.352V386.932C575.557 387.426 575.642 387.845 575.812 388.189C575.986 388.53 576.226 388.79 576.533 388.969C576.839 389.145 577.196 389.233 577.602 389.233C577.866 389.233 578.105 389.196 578.318 389.122C578.534 389.045 578.72 388.932 578.876 388.781C579.033 388.628 579.153 388.437 579.239 388.21L580.21 388.483C580.108 388.812 579.936 389.102 579.695 389.352C579.453 389.599 579.155 389.793 578.8 389.932C578.445 390.068 578.045 390.136 577.602 390.136ZM582.848 386.062V390H581.842V381.273H582.848V384.477H582.933C583.087 384.139 583.317 383.871 583.624 383.672C583.933 383.47 584.345 383.369 584.859 383.369C585.305 383.369 585.696 383.459 586.031 383.638C586.366 383.814 586.626 384.085 586.811 384.452C586.999 384.815 587.092 385.278 587.092 385.841V390H586.087V385.909C586.087 385.389 585.952 384.987 585.682 384.703C585.415 384.416 585.044 384.273 584.57 384.273C584.24 384.273 583.945 384.342 583.683 384.482C583.425 384.621 583.22 384.824 583.07 385.091C582.922 385.358 582.848 385.682 582.848 386.062ZM591.591 390.136C591 390.136 590.482 389.996 590.036 389.714C589.593 389.433 589.246 389.04 588.996 388.534C588.749 388.028 588.625 387.437 588.625 386.761C588.625 386.08 588.749 385.484 588.996 384.976C589.246 384.467 589.593 384.072 590.036 383.791C590.482 383.51 591 383.369 591.591 383.369C592.182 383.369 592.699 383.51 593.142 383.791C593.588 384.072 593.935 384.467 594.182 384.976C594.432 385.484 594.557 386.08 594.557 386.761C594.557 387.437 594.432 388.028 594.182 388.534C593.935 389.04 593.588 389.433 593.142 389.714C592.699 389.996 592.182 390.136 591.591 390.136ZM591.591 389.233C592.04 389.233 592.409 389.118 592.699 388.888C592.989 388.658 593.203 388.355 593.343 387.98C593.482 387.605 593.551 387.199 593.551 386.761C593.551 386.324 593.482 385.916 593.343 385.538C593.203 385.161 592.989 384.855 592.699 384.622C592.409 384.389 592.04 384.273 591.591 384.273C591.142 384.273 590.773 384.389 590.483 384.622C590.194 384.855 589.979 385.161 589.84 385.538C589.701 385.916 589.631 386.324 589.631 386.761C589.631 387.199 589.701 387.605 589.84 387.98C589.979 388.355 590.194 388.658 590.483 388.888C590.773 389.118 591.142 389.233 591.591 389.233ZM597.098 381.273V390H596.092V381.273H597.098ZM601.412 390.136C600.866 390.136 600.385 389.999 599.967 389.723C599.549 389.445 599.223 389.053 598.987 388.547C598.751 388.038 598.633 387.438 598.633 386.744C598.633 386.057 598.751 385.46 598.987 384.955C599.223 384.449 599.551 384.058 599.971 383.783C600.392 383.507 600.877 383.369 601.429 383.369C601.855 383.369 602.191 383.44 602.439 383.582C602.689 383.722 602.879 383.881 603.01 384.06C603.143 384.236 603.247 384.381 603.321 384.494H603.406V381.273H604.412V390H603.44V388.994H603.321C603.247 389.114 603.142 389.264 603.005 389.446C602.869 389.625 602.674 389.786 602.422 389.928C602.169 390.067 601.832 390.136 601.412 390.136ZM601.548 389.233C601.951 389.233 602.292 389.128 602.571 388.918C602.849 388.705 603.061 388.411 603.206 388.036C603.35 387.658 603.423 387.222 603.423 386.727C603.423 386.239 603.352 385.811 603.21 385.445C603.068 385.075 602.858 384.788 602.579 384.584C602.301 384.376 601.957 384.273 601.548 384.273C601.122 384.273 600.767 384.382 600.483 384.601C600.201 384.817 599.99 385.111 599.848 385.483C599.708 385.852 599.639 386.267 599.639 386.727C599.639 387.193 599.71 387.616 599.852 387.997C599.997 388.375 600.21 388.676 600.491 388.901C600.775 389.122 601.127 389.233 601.548 389.233ZM609.137 390.136C608.507 390.136 607.963 389.997 607.505 389.719C607.051 389.438 606.7 389.045 606.453 388.543C606.208 388.037 606.086 387.449 606.086 386.778C606.086 386.108 606.208 385.517 606.453 385.006C606.7 384.491 607.044 384.091 607.484 383.804C607.927 383.514 608.444 383.369 609.035 383.369C609.376 383.369 609.713 383.426 610.045 383.54C610.377 383.653 610.68 383.838 610.953 384.094C611.225 384.347 611.443 384.682 611.605 385.099C611.767 385.517 611.848 386.031 611.848 386.642V387.068H606.802V386.199H610.825C610.825 385.83 610.751 385.5 610.603 385.21C610.458 384.92 610.251 384.692 609.981 384.524C609.714 384.357 609.399 384.273 609.035 384.273C608.635 384.273 608.288 384.372 607.995 384.571C607.706 384.767 607.483 385.023 607.326 385.338C607.17 385.653 607.092 385.991 607.092 386.352V386.932C607.092 387.426 607.177 387.845 607.348 388.189C607.521 388.53 607.761 388.79 608.068 388.969C608.375 389.145 608.731 389.233 609.137 389.233C609.402 389.233 609.64 389.196 609.853 389.122C610.069 389.045 610.255 388.932 610.412 388.781C610.568 388.628 610.689 388.437 610.774 388.21L611.745 388.483C611.643 388.812 611.471 389.102 611.23 389.352C610.988 389.599 610.69 389.793 610.335 389.932C609.98 390.068 609.581 390.136 609.137 390.136ZM613.377 390V383.455H614.349V384.443H614.417C614.537 384.119 614.752 383.857 615.065 383.655C615.377 383.453 615.73 383.352 616.122 383.352C616.196 383.352 616.288 383.354 616.399 383.357C616.51 383.359 616.593 383.364 616.65 383.369V384.392C616.616 384.384 616.538 384.371 616.416 384.354C616.297 384.334 616.17 384.324 616.037 384.324C615.718 384.324 615.434 384.391 615.184 384.524C614.937 384.655 614.741 384.837 614.596 385.07C614.454 385.3 614.383 385.562 614.383 385.858V390H613.377ZM625.734 390V390.938H620.28V390H625.734ZM626.626 390V389.233L629.507 386.08C629.845 385.71 630.123 385.389 630.342 385.116C630.561 384.841 630.723 384.582 630.828 384.341C630.936 384.097 630.99 383.841 630.99 383.574C630.99 383.267 630.916 383.001 630.768 382.777C630.623 382.553 630.424 382.379 630.172 382.257C629.919 382.135 629.635 382.074 629.319 382.074C628.984 382.074 628.691 382.143 628.441 382.283C628.194 382.419 628.002 382.611 627.866 382.858C627.733 383.105 627.666 383.395 627.666 383.727H626.66C626.66 383.216 626.778 382.767 627.014 382.381C627.25 381.994 627.571 381.693 627.977 381.477C628.386 381.261 628.845 381.153 629.353 381.153C629.865 381.153 630.318 381.261 630.713 381.477C631.108 381.693 631.417 381.984 631.642 382.351C631.866 382.717 631.978 383.125 631.978 383.574C631.978 383.895 631.92 384.209 631.804 384.516C631.69 384.82 631.491 385.159 631.207 385.534C630.926 385.906 630.535 386.361 630.035 386.898L628.075 388.994V389.062H632.132V390H626.626Z" fill="#6A6A6A"/>
</svg>
