<svg width="640" height="400" viewBox="0 0 640 400" fill="none" xmlns="http://www.w3.org/2000/svg">
<path d="M386.541 104C386.541 104 322.045 129.975 302.674 139.881" stroke="#585953" stroke-width="0.5" stroke-miterlimit="10" stroke-linecap="round" stroke-linejoin="round"/>
<path d="M298.734 142.808C298.734 142.808 298.601 140.211 305.535 137.239L306.887 140.451C306.887 140.451 300.35 142.263 298.734 142.808Z" fill="#585953"/>
<path d="M119.512 269.533C119.512 269.533 124.248 272.874 132.016 273.257L200.493 271.394H212.864L211.868 223.749C211.868 223.749 183.563 208.191 182.071 208.191C180.579 208.191 139.311 208.191 139.311 208.191L116.744 240.723L119.512 269.533Z" fill="#151611"/>
<path d="M478.181 286.873C498.974 282.015 511.892 261.221 507.035 240.428C502.177 219.635 481.383 206.717 460.59 211.575C439.797 216.432 426.878 237.226 431.736 258.02C436.594 278.813 457.388 291.731 478.181 286.873Z" fill="#151611"/>
<path d="M539.833 260.59H526.317L475.249 210.571C475.249 210.571 511.055 194.985 533.655 223.306C533.655 223.306 550.122 244.015 539.833 260.59Z" fill="#151611"/>
<path d="M165.764 215.736C144.412 215.736 127.102 233.045 127.102 254.398C127.102 275.751 144.412 293.06 165.764 293.06C187.115 293.06 204.426 275.751 204.426 254.398C204.426 233.045 187.117 215.736 165.764 215.736ZM165.764 270.704C156.758 270.704 149.456 263.404 149.456 254.396C149.456 245.391 156.756 238.09 165.764 238.09C174.77 238.09 182.071 245.391 182.071 254.396C182.071 263.404 174.77 270.704 165.764 270.704Z" fill="#151611"/>
<path d="M165.764 215.736C155.624 215.743 145.602 219.943 138.511 227.145C131.385 234.323 127.384 244.373 127.515 254.398C127.581 264.435 131.809 274.281 138.926 281.237C145.969 288.273 155.84 292.306 165.764 292.233C175.686 292.3 185.558 288.273 192.601 281.235C199.712 274.276 203.944 264.437 204.01 254.398C204.143 244.373 200.14 234.325 193.017 227.145C185.926 219.943 175.904 215.743 165.764 215.736ZM165.764 215.736C175.902 215.662 185.993 219.784 193.188 226.975C200.456 234.081 204.778 244.146 204.842 254.398C204.976 264.637 200.884 274.911 193.604 282.238C186.361 289.591 176.119 293.889 165.764 293.888C155.411 293.883 145.168 289.591 137.926 282.236C130.652 274.906 126.556 264.637 126.691 254.398C126.755 244.146 131.077 234.084 138.342 226.975C145.534 219.786 155.626 215.662 165.764 215.736Z" fill="#FAF3E3"/>
<path d="M165.763 270.704C161.487 270.731 157.237 269.008 154.152 266.01C151.039 263.039 149.129 258.786 149.045 254.398C148.929 250.02 150.623 245.571 153.731 242.364C156.821 239.14 161.273 237.258 165.765 237.263C170.255 237.258 174.711 239.138 177.801 242.362C180.912 245.566 182.603 250.019 182.489 254.398C182.402 258.788 180.493 263.041 177.378 266.011C174.29 269.01 170.04 270.732 165.763 270.704ZM165.763 270.704C170.04 270.706 174.274 268.917 177.212 265.846C180.168 262.791 181.769 258.56 181.655 254.398C181.567 250.224 179.749 246.195 176.79 243.373C173.854 240.527 169.826 238.896 165.765 238.919C161.704 238.895 157.674 240.524 154.737 243.37C151.775 246.19 149.958 250.224 149.87 254.398C149.757 258.562 151.357 262.792 154.316 265.847C157.253 268.919 161.487 270.706 165.763 270.704Z" fill="#FAF3E3"/>
<path d="M184.507 273.145C194.86 262.792 194.86 246.006 184.507 235.652C174.153 225.299 157.367 225.299 147.014 235.652C136.66 246.006 136.66 262.792 147.014 273.145C157.367 283.499 174.153 283.499 184.507 273.145Z" stroke="#3C3C3B" stroke-width="0.5" stroke-miterlimit="10"/>
<path d="M185.793 274.431C196.856 263.368 196.856 245.43 185.793 234.367C174.729 223.303 156.792 223.303 145.728 234.367C134.665 245.43 134.665 263.368 145.728 274.431C156.792 285.495 174.729 285.495 185.793 274.431Z" stroke="#3C3C3B" stroke-width="0.5" stroke-miterlimit="10"/>
<path d="M181.736 270.375C190.559 261.551 190.559 247.246 181.736 238.423C172.913 229.6 158.608 229.6 149.785 238.423C140.962 247.246 140.962 261.551 149.785 270.375C158.608 279.198 172.913 279.198 181.736 270.375Z" stroke="#3C3C3B" stroke-width="0.5" stroke-miterlimit="10"/>
<path d="M177.292 265.93C183.661 259.562 183.661 249.236 177.292 242.868C170.924 236.499 160.598 236.499 154.23 242.868C147.861 249.236 147.861 259.562 154.23 265.93C160.598 272.298 170.924 272.298 177.292 265.93Z" fill="#585953"/>
<path d="M185.73 271.84C185.73 271.84 177.186 262.262 169.316 263.933C161.446 265.604 159.554 280.125 159.554 280.125C157.839 279.886 155.377 278.813 155.377 278.813C155.377 278.813 161.833 267.595 157.756 260.659C153.678 253.724 139.336 256.497 139.336 256.497C139.273 255.408 139.353 252.101 139.353 252.101C139.353 252.101 152.03 254.78 157.446 248.829C162.863 242.88 155.873 229.826 155.873 229.826C157.587 229.095 159.988 228.52 159.988 228.52C159.988 228.52 161.255 241.564 168.591 244.865C175.928 248.167 186.167 237.471 186.167 237.471C186.167 237.471 188.015 239.788 188.629 240.932C188.629 240.932 176.546 246.006 175.565 253.992C174.585 261.979 188.121 268.652 188.121 268.652C188.121 268.652 186.56 270.971 185.73 271.84Z" fill="#FAF3E3"/>
<path d="M168.472 254.398C168.472 252.902 167.259 251.69 165.764 251.69C164.269 251.69 163.055 252.903 163.055 254.398C163.055 255.894 164.269 257.107 165.764 257.107C167.261 257.107 168.472 255.894 168.472 254.398Z" fill="#585953"/>
<path d="M164.995 248.207C164.995 247.413 164.35 246.768 163.556 246.768C162.76 246.768 162.117 247.413 162.117 248.207C162.117 249.001 162.762 249.646 163.556 249.646C164.35 249.646 164.995 249.001 164.995 248.207Z" fill="#585953"/>
<path d="M160.538 254.399C160.538 253.603 159.893 252.96 159.099 252.96C158.305 252.96 157.66 253.605 157.66 254.399C157.66 255.193 158.305 255.837 159.099 255.837C159.893 255.837 160.538 255.193 160.538 254.399Z" fill="#585953"/>
<path d="M172.533 258.741C172.533 257.946 171.889 257.302 171.095 257.302C170.301 257.302 169.656 257.947 169.656 258.741C169.656 259.535 170.301 260.18 171.095 260.18C171.889 260.18 172.533 259.537 172.533 258.741Z" fill="#585953"/>
<path d="M172.533 250.251C172.533 249.455 171.889 248.812 171.095 248.812C170.301 248.812 169.656 249.457 169.656 250.251C169.656 251.045 170.301 251.69 171.095 251.69C171.889 251.69 172.533 251.045 172.533 250.251Z" fill="#585953"/>
<path d="M164.718 260.589C164.718 259.795 164.073 259.151 163.279 259.151C162.483 259.151 161.84 259.795 161.84 260.589C161.84 261.383 162.485 262.028 163.279 262.028C164.073 262.028 164.718 261.383 164.718 260.589Z" fill="#585953"/>
<path d="M493.896 215.736C472.544 215.736 455.234 233.045 455.234 254.398C455.234 275.751 472.543 293.06 493.896 293.06C515.249 293.06 532.558 275.751 532.558 254.398C532.558 233.045 515.249 215.736 493.896 215.736ZM493.896 270.704C484.89 270.704 477.59 263.404 477.59 254.396C477.59 245.391 484.89 238.09 493.896 238.09C502.902 238.09 510.202 245.391 510.202 254.396C510.204 263.404 502.904 270.704 493.896 270.704Z" fill="#151611"/>
<path d="M493.896 215.736C483.756 215.743 473.734 219.943 466.643 227.145C459.517 234.323 455.516 244.373 455.646 254.398C455.713 264.435 459.941 274.281 467.057 281.237C474.101 288.273 483.972 292.306 493.896 292.233C503.818 292.3 513.688 288.273 520.733 281.235C527.844 274.276 532.076 264.437 532.142 254.398C532.275 244.373 528.271 234.325 521.149 227.145C514.057 219.943 504.036 215.743 493.896 215.736ZM493.896 215.736C504.034 215.662 514.125 219.784 521.319 226.975C528.588 234.081 532.909 244.146 532.974 254.398C533.108 264.637 529.016 274.911 521.736 282.238C514.493 289.591 504.251 293.889 493.896 293.888C483.542 293.883 473.3 289.591 466.058 282.236C458.783 274.906 454.688 264.637 454.821 254.398C454.884 244.146 459.207 234.084 466.472 226.975C473.668 219.786 483.76 215.662 493.896 215.736Z" fill="#FAF3E3"/>
<path d="M493.896 270.704C489.621 270.731 485.371 269.008 482.284 266.01C479.171 263.039 477.262 258.786 477.177 254.398C477.061 250.02 478.755 245.571 481.863 242.364C484.953 239.14 489.405 237.258 493.897 237.263C498.388 237.258 502.843 239.138 505.933 242.362C509.045 245.566 510.735 250.019 510.621 254.398C510.535 258.788 508.625 263.041 505.511 266.011C502.422 269.01 498.172 270.732 493.896 270.704ZM493.896 270.704C498.172 270.706 502.406 268.917 505.345 265.846C508.3 262.791 509.902 258.56 509.787 254.397C509.699 250.223 507.881 246.193 504.922 243.372C501.986 240.526 497.958 238.895 493.897 238.918C489.836 238.893 485.806 240.522 482.869 243.368C479.907 246.188 478.09 250.223 478.002 254.397C477.89 258.56 479.489 262.791 482.448 265.846C485.387 268.919 489.619 270.706 493.896 270.704Z" fill="#FAF3E3"/>
<path d="M499.346 280.327C513.673 277.309 522.841 263.248 519.823 248.921C516.806 234.594 502.745 225.426 488.417 228.443C474.09 231.461 464.922 245.522 467.94 259.849C470.957 274.177 485.018 283.345 499.346 280.327Z" stroke="#3C3C3B" stroke-width="0.5" stroke-miterlimit="10"/>
<path d="M520.021 265.356C526.071 250.927 519.279 234.325 504.85 228.274C490.421 222.224 473.819 229.016 467.768 243.445C461.718 257.874 468.51 274.476 482.939 280.527C497.368 286.577 513.97 279.785 520.021 265.356Z" stroke="#3C3C3B" stroke-width="0.5" stroke-miterlimit="10"/>
<path d="M514.353 264.021C519.678 252.736 514.847 239.27 503.561 233.944C492.275 228.618 478.809 233.449 473.483 244.734C468.158 256.019 472.989 269.485 484.275 274.811C495.561 280.136 509.027 275.306 514.353 264.021Z" stroke="#3C3C3B" stroke-width="0.5" stroke-miterlimit="10"/>
<path d="M496.374 270.522C505.275 269.154 511.382 260.828 510.014 251.926C508.646 243.024 500.321 236.917 491.42 238.285C482.519 239.653 476.412 247.978 477.78 256.88C479.148 265.782 487.473 271.89 496.374 270.522Z" fill="#585953"/>
<path d="M513.863 271.84C513.863 271.84 505.319 262.262 497.449 263.933C489.579 265.604 487.687 280.125 487.687 280.125C485.972 279.886 483.508 278.813 483.508 278.813C483.508 278.813 489.965 267.595 485.887 260.659C481.809 253.724 467.468 256.497 467.468 256.497C467.405 255.408 467.484 252.101 467.484 252.101C467.484 252.101 480.162 254.78 485.577 248.829C490.994 242.88 484.004 229.826 484.004 229.826C485.718 229.095 488.12 228.52 488.12 228.52C488.12 228.52 489.386 241.564 496.723 244.865C504.059 248.167 514.298 237.471 514.298 237.471C514.298 237.471 516.145 239.788 516.76 240.932C516.76 240.932 504.676 246.006 503.696 253.992C502.717 261.979 516.253 268.652 516.253 268.652C516.253 268.652 514.695 270.971 513.863 271.84Z" fill="#FAF3E3"/>
<path d="M496.606 254.398C496.606 252.902 495.392 251.69 493.897 251.69C492.402 251.69 491.188 252.903 491.188 254.398C491.188 255.894 492.402 257.107 493.897 257.107C495.394 257.107 496.606 255.894 496.606 254.398Z" fill="#3C3C3B"/>
<path d="M493.128 248.207C493.128 247.413 492.483 246.768 491.689 246.768C490.895 246.768 490.25 247.413 490.25 248.207C490.25 249.001 490.895 249.646 491.689 249.646C492.484 249.646 493.128 249.001 493.128 248.207Z" fill="#3C3C3B"/>
<path d="M488.671 254.399C488.671 253.603 488.026 252.96 487.232 252.96C486.438 252.96 485.793 253.605 485.793 254.399C485.793 255.193 486.438 255.837 487.232 255.837C488.026 255.837 488.671 255.193 488.671 254.399Z" fill="#3C3C3B"/>
<path d="M500.666 258.741C500.666 257.946 500.021 257.302 499.227 257.302C498.432 257.302 497.789 257.947 497.789 258.741C497.789 259.535 498.433 260.18 499.227 260.18C500.021 260.18 500.666 259.537 500.666 258.741Z" fill="#3C3C3B"/>
<path d="M500.666 250.251C500.666 249.455 500.021 248.812 499.227 248.812C498.432 248.812 497.789 249.457 497.789 250.251C497.789 251.045 498.433 251.69 499.227 251.69C500.021 251.69 500.666 251.045 500.666 250.251Z" fill="#3C3C3B"/>
<path d="M492.851 260.589C492.851 259.795 492.206 259.151 491.412 259.151C490.618 259.151 489.974 259.795 489.974 260.589C489.974 261.383 490.618 262.028 491.412 262.028C492.208 262.028 492.851 261.383 492.851 260.589Z" fill="#3C3C3B"/>
<path d="M215.24 272.027H447.165C448.166 272.027 449.033 271.371 449.335 270.414C451.077 264.881 450.695 249.673 450.695 249.673C453.057 227.061 472.176 209.434 495.414 209.434C516.622 209.434 534.4 224.116 539.139 243.869C539.139 243.869 539.839 247.548 539.834 249.232C540.054 253.386 538.35 261.314 538.35 261.314C542.753 261.021 566.233 258.967 566.233 258.967C572.689 255.738 578.854 243.705 578.854 243.705C582.963 229.324 580.908 214.649 580.908 214.649L570.635 207.312C571.222 188.822 567.7 176.789 567.7 176.789C536.296 173.267 426.234 142.523 426.234 142.523C345.523 125.867 299.591 142.523 299.591 142.523C255.125 157.271 204.424 182.805 204.424 182.805C75.5062 187.646 60.8297 231.805 60.8297 231.805H58.335V243.853H61.2706V246.77H65.6732L72.8639 267.039C77.56 271.442 119.511 269.534 119.511 269.534C119.345 261.316 119.511 251.489 119.511 251.489C121.013 227.252 141.146 208.058 165.762 208.058C190.377 208.058 210.509 227.25 212.012 251.488C212.012 251.488 212.687 261.662 212.599 269.355C212.584 270.827 213.766 272.027 215.24 272.027Z" fill="#151611"/>
<path d="M215.24 272.027L343.07 271.868L406.984 271.788L438.941 271.749L446.931 271.739C447.569 271.775 448.126 271.585 448.547 271.162C448.988 270.767 449.102 270.151 449.27 269.503C449.568 268.23 449.764 266.918 449.898 265.601C450.432 260.326 450.462 254.989 450.377 249.679V249.658L450.379 249.638C451.592 237.628 457.906 226.29 467.372 218.823C476.766 211.211 489.356 207.878 501.309 209.446C513.322 210.878 524.51 217.538 531.764 227.19C535.368 232.041 538.02 237.572 539.512 243.45C539.857 244.947 540.06 246.412 540.235 247.93C540.382 249.467 540.349 250.985 540.213 252.497C539.943 255.511 539.436 258.465 538.836 261.417L538.317 260.817L566.184 258.435L565.994 258.489C567.406 257.762 568.663 256.701 569.828 255.56C571 254.418 572.051 253.142 573.052 251.829C575.048 249.202 576.806 246.356 578.356 243.45L578.317 243.551C578.933 241.214 579.508 238.86 579.861 236.461C580.248 234.071 580.52 231.659 580.662 229.239C580.965 224.409 580.886 219.511 580.319 214.732L580.561 215.133L570.28 207.808L570.017 207.619L570.027 207.292C570.176 202.192 570.027 197.083 569.579 192.003C569.342 189.463 569.032 186.932 568.629 184.417C568.22 181.911 567.738 179.385 567.08 176.971L567.628 177.432C559.786 176.456 552.08 174.888 544.38 173.298C536.691 171.669 529.034 169.908 521.387 168.103C506.103 164.465 490.877 160.602 475.677 156.646C460.477 152.686 445.305 148.623 430.157 144.464L427.318 143.682C426.401 143.396 425.451 143.199 424.482 143.035L418.718 141.954C414.874 141.238 411.042 140.461 407.155 139.952C403.276 139.413 399.414 138.729 395.52 138.309C391.625 137.896 387.734 137.436 383.835 137.064C368.232 135.68 352.515 135.46 336.903 136.662C321.299 137.847 305.735 140.389 291.117 146.133C276.347 151.409 261.779 157.257 247.387 163.515C232.993 169.761 218.73 176.338 204.667 183.285L204.566 183.335L204.445 183.342L184.846 184.474C181.573 184.595 178.328 185.021 175.072 185.342L165.311 186.362C163.686 186.551 162.05 186.657 160.436 186.915L155.589 187.673L145.893 189.186L143.47 189.564L141.071 190.073L136.276 191.099C133.085 191.81 129.864 192.405 126.698 193.213C114.052 196.503 101.567 200.616 89.9256 206.553C87.0464 208.09 84.119 209.547 81.4353 211.412C80.0777 212.313 78.6621 213.135 77.351 214.102L73.4887 217.097L72.5223 217.846L71.6289 218.679L69.8436 220.344C68.6087 221.412 67.5462 222.644 66.4704 223.864C64.3404 226.287 62.3695 228.981 61.1561 231.913L61.0583 232.148H60.8312L58.3365 232.145L58.6763 231.807L58.6614 243.853L58.3381 243.529L61.2721 243.533H61.5937V243.853L61.5904 246.77L61.2738 246.454L65.6764 246.458H65.8969L65.9698 246.666L73.1357 266.943L73.0627 266.831C73.7225 267.406 74.6922 267.699 75.6038 267.958C76.5305 268.221 77.4919 268.39 78.4516 268.546C80.3761 268.851 82.3222 269.04 84.2715 269.193C88.1719 269.484 92.0888 269.602 96.0041 269.662C103.836 269.761 111.677 269.615 119.506 269.307L119.29 269.536L119.304 258.289L119.31 252.666C119.272 251.728 119.375 250.793 119.492 249.857L119.807 247.05C121.072 239.641 124.043 232.498 128.581 226.499C137.589 214.443 152.714 207.147 167.774 208.043C182.846 208.496 197.261 217.096 205.123 229.882C209.145 236.226 211.394 243.611 211.997 251.068C212.272 254.805 212.417 258.551 212.533 262.295C212.584 264.168 212.617 266.042 212.617 267.915C212.652 268.836 212.448 269.829 212.937 270.666C213.38 271.495 214.301 272.029 215.24 272.027ZM215.24 272.027C214.3 272.032 213.376 271.5 212.929 270.668C212.437 269.829 212.639 268.833 212.601 267.913C212.597 266.04 212.559 264.167 212.503 262.295C212.377 258.552 212.223 254.806 211.939 251.072C211.319 243.624 209.053 236.261 205.027 229.942C197.15 217.205 182.764 208.68 167.764 208.267C152.772 207.412 137.761 214.71 128.85 226.7C124.359 232.667 121.432 239.76 120.195 247.11L119.892 249.888C119.778 250.813 119.676 251.74 119.718 252.68L119.725 258.296L119.738 269.526V269.746L119.522 269.755C111.683 270.083 103.841 270.249 95.9942 270.169C92.0706 270.119 88.147 270.01 84.2284 269.728C82.2691 269.581 80.3115 269.395 78.3621 269.092C77.3891 268.934 76.4144 268.767 75.453 268.496C74.4999 268.22 73.5153 267.961 72.6699 267.243L72.6218 267.202L72.5969 267.131L65.3813 246.871L65.6747 247.078L61.2721 247.083H60.9555V246.767L60.9522 243.849L61.2721 244.169L58.3381 244.173H58.0149V243.848L58 231.802V231.462H58.3398L60.8345 231.459L60.5096 231.692C61.7976 228.556 63.7718 225.886 65.935 223.398C67.0224 222.156 68.0998 220.905 69.3447 219.821L71.1482 218.13L72.0499 217.286L73.0229 216.527L76.9167 213.492C78.2378 212.514 79.66 211.68 81.0276 210.768C83.7311 208.882 86.6717 207.407 89.5676 205.854C101.27 199.85 113.8 195.689 126.484 192.354C129.66 191.535 132.888 190.93 136.089 190.209L140.899 189.168L143.304 188.653L145.733 188.266L155.451 186.723L160.31 185.952C161.929 185.689 163.567 185.579 165.195 185.385L174.976 184.339C178.238 184.008 181.492 183.574 184.769 183.444L204.405 182.261L204.183 182.319C218.26 175.32 232.51 168.705 246.912 162.414C261.305 156.112 275.883 150.217 290.678 144.89C294.409 143.622 298.054 142.274 301.865 141.097C305.661 139.972 309.511 139.12 313.377 138.344C321.113 136.824 328.94 135.821 336.791 135.229C352.492 133.979 368.289 134.163 383.968 135.514C387.885 135.879 391.795 136.332 395.709 136.736C399.622 137.147 403.501 137.825 407.4 138.357C411.302 138.859 415.171 139.632 419.046 140.345L424.86 141.422L426.313 141.692C426.796 141.805 427.28 141.956 427.76 142.085L430.597 142.874C445.726 147.068 460.881 151.167 476.065 155.162C491.249 159.154 506.457 163.052 521.717 166.726C529.351 168.547 536.994 170.324 544.662 171.97C552.333 173.575 560.028 175.158 567.772 176.141L568.212 176.197L568.321 176.603C569.006 179.14 569.477 181.659 569.888 184.212C570.29 186.76 570.597 189.321 570.831 191.887C571.268 197.022 571.406 202.18 571.244 207.327L570.988 206.813L581.251 214.163L581.464 214.317L581.493 214.564C582.064 219.487 582.127 224.399 581.809 229.311C581.658 231.765 581.378 234.212 580.979 236.64C580.614 239.075 580.022 241.474 579.387 243.854L579.372 243.907L579.346 243.956C577.745 246.941 575.969 249.795 573.917 252.486C572.89 253.827 571.809 255.134 570.584 256.325C569.362 257.511 568.039 258.632 566.47 259.439L566.38 259.486L566.277 259.494L538.381 261.808L537.727 261.863L537.861 261.208C538.459 258.304 538.971 255.357 539.242 252.414C539.578 249.485 539.197 246.55 538.582 243.659C537.145 237.942 534.554 232.488 531.036 227.734C523.949 218.258 512.99 211.69 501.199 210.255C489.464 208.686 477.081 211.924 467.818 219.393C458.483 226.72 452.234 237.865 451.007 249.704L451.009 249.663C451.08 255 451.038 260.338 450.486 265.664C450.347 266.995 450.147 268.324 449.835 269.642C449.74 269.975 449.676 270.29 449.558 270.636C449.429 270.988 449.218 271.308 448.953 271.573C448.438 272.115 447.614 272.365 446.926 272.312L438.936 272.302L406.979 272.263L343.065 272.183L215.24 272.027Z" fill="#FAF3E3"/>
<path d="M454.928 214.502H441.86C438.553 214.502 435.848 211.796 435.848 208.489V201.144C435.848 197.838 438.553 195.132 441.86 195.132H454.928C458.235 195.132 460.941 197.838 460.941 201.144V208.489C460.941 211.796 458.235 214.502 454.928 214.502Z" stroke="#797A75" stroke-width="0.5" stroke-miterlimit="10" stroke-linecap="round" stroke-linejoin="round"/>
<path d="M212.542 263.146C212.542 263.146 418.69 259.314 450.712 255.838" stroke="#797A75" stroke-width="0.5" stroke-miterlimit="10"/>
<path d="M81.3506 210.918C81.3506 210.918 102.963 220.625 131.004 223.749" stroke="#797A75" stroke-width="0.5" stroke-miterlimit="10"/>
<path d="M232.679 262.75C232.904 257.508 229.372 249.646 229.372 249.646C218.145 190.799 241.479 181.483 241.479 181.483C241.479 181.483 291.027 144.476 337.452 141.812" stroke="#797A75" stroke-width="0.5" stroke-miterlimit="10" stroke-linecap="round" stroke-linejoin="round"/>
<path d="M539.833 249.232L578.853 243.704" stroke="#797A75" stroke-width="0.5" stroke-miterlimit="10"/>
<path d="M567.701 176.787C411.635 176.751 251.919 193.591 251.919 193.591C251.919 193.591 230.499 197.038 236.649 185.19" stroke="#797A75" stroke-width="0.5" stroke-miterlimit="10"/>
<path d="M395.095 175.995L397.986 182.143C397.986 182.143 403.489 217.367 387.641 258.741" stroke="#797A75" stroke-width="0.5" stroke-miterlimit="10" stroke-linecap="round" stroke-linejoin="round"/>
<path d="M516.761 214.82L544.808 211.2C544.808 211.2 555.38 210.314 558.128 201.622" stroke="#797A75" stroke-width="0.5" stroke-miterlimit="10"/>
<path d="M60.833 231.803C60.833 231.803 112.247 228.608 129.097 226.066" stroke="#797A75" stroke-width="0.5" stroke-miterlimit="10"/>
<path d="M65.6743 246.769H74.3652C76.4737 246.769 78.3186 248.189 78.8308 250.235C79.4275 252.62 79.9132 255.909 79.2402 259.018C78.7661 261.206 77.0671 262.927 74.9105 263.524C73.4286 263.933 71.9136 264.353 71.9136 264.353" stroke="#797A75" stroke-width="0.5" stroke-miterlimit="10"/>
<path d="M137.433 196.891C137.433 196.891 174.782 186.325 239.785 182.461" stroke="#797A75" stroke-width="0.5" stroke-miterlimit="10" stroke-linecap="round" stroke-linejoin="round"/>
<path d="M204.425 182.803C204.425 182.803 215.574 182.803 224.97 182.803" stroke="#797A75" stroke-width="0.5" stroke-miterlimit="10" stroke-linecap="round" stroke-linejoin="round"/>
<path d="M222.986 183.65C222.986 183.65 267.014 155.95 308.176 142.962C349.337 129.975 417.797 141.812 417.797 141.812" stroke="#797A75" stroke-width="0.5" stroke-miterlimit="10" stroke-linecap="round" stroke-linejoin="round"/>
<path d="M211.868 249.732L302.307 246.739L347.52 245.093C362.588 244.511 377.662 243.955 392.703 242.964L392.727 242.963C397.936 242.744 403.141 241.66 408.237 240.408C413.344 239.138 418.37 237.544 423.324 235.769C428.302 234.048 433.179 232.046 438.031 229.992L445.24 226.749L452.358 223.305L445.286 226.844L438.117 230.184C433.288 232.301 428.435 234.376 423.467 236.16C418.509 237.962 413.478 239.583 408.358 240.882C403.236 242.162 398.057 243.276 392.725 243.523H392.746C377.692 244.584 362.621 245.209 347.552 245.858C332.482 246.515 317.406 246.941 302.33 247.42L257.102 248.711C242.026 249.149 226.945 249.422 211.868 249.732Z" fill="#797A75"/>
<path d="M487.23 172.237C492.379 172.068 497.528 171.977 502.678 171.959C507.828 171.931 512.976 171.992 518.127 172.053C523.275 172.184 528.424 172.294 533.571 172.537C538.716 172.771 543.86 173.099 548.988 173.578C543.841 173.404 538.694 173.296 533.549 173.174L518.112 172.88L502.673 172.592L487.23 172.237Z" fill="#797A75"/>
<path d="M580.907 214.647C576.037 215.216 571.157 215.685 566.273 216.084C561.388 216.495 556.498 216.805 551.608 217.14C546.715 217.404 541.822 217.689 536.925 217.883C532.029 218.09 527.129 218.221 522.227 218.299C527.114 217.914 532.002 217.565 536.89 217.246L551.557 216.313L566.228 215.451L580.907 214.647Z" fill="#797A75"/>
<path d="M83.4307 252.96C86.179 252.774 88.924 252.534 91.6756 252.396C94.4256 252.24 97.1756 252.066 99.9289 251.959C105.432 251.687 110.939 251.496 116.445 251.334L116.793 251.324L116.807 251.673C116.906 254.14 116.931 256.607 116.941 259.075C116.953 260.308 116.914 261.543 116.863 262.778C116.785 264.004 116.79 265.261 116.45 266.451C116.707 265.246 116.618 264.001 116.613 262.775L116.479 259.085C116.387 256.625 116.225 254.165 116.094 251.71L116.455 252.05C110.955 252.31 105.455 252.544 99.9521 252.695C97.2021 252.799 94.4488 252.835 91.6955 252.892C88.9439 252.963 86.1873 252.933 83.4307 252.96Z" fill="#797A75"/>
<path d="M379.369 142.08C379.369 142.08 377.597 141.956 374.632 141.81C377.208 148.005 384.808 168.717 387.145 176.567C391.702 176.231 396.282 175.907 400.867 175.596C398.608 168.168 392.307 150.896 389.283 143.254C385.594 142.642 382.247 142.231 379.369 142.08Z" fill="#585953"/>
<path d="M322.396 144.282C302.988 149.125 264.246 167.835 251.92 179.501C251.92 179.501 253.681 189.407 260.944 188.527C260.944 188.527 321.658 181.396 387.147 176.567C384.81 168.717 377.209 148.005 374.634 141.81C363.924 141.286 337.593 140.489 322.396 144.282Z" fill="#FAF3E3"/>
<path d="M487.23 172.238C487.23 172.238 423.414 148.935 389.284 143.256C392.307 150.897 398.608 168.168 400.867 175.598C431.306 173.535 461.932 172.105 487.23 172.238Z" fill="#FAF3E3"/>
<path d="M383.782 200.855H368.385C366.263 200.855 364.527 199.119 364.527 196.997C364.527 194.876 366.263 193.14 368.385 193.14H383.782C385.904 193.14 387.639 194.876 387.639 196.997C387.641 199.117 385.904 200.855 383.782 200.855Z" fill="#3C3C3B"/>
<path d="M379.526 199.802H368.329C366.785 199.802 365.524 198.539 365.524 196.997C365.524 195.454 366.787 194.193 368.329 194.193H379.526C381.069 194.193 382.33 195.456 382.33 196.997C382.332 198.539 381.069 199.802 379.526 199.802Z" fill="#FAF3E3"/>
<path d="M214.294 213.622H211.433C210.283 213.622 209.341 212.68 209.341 211.531C209.341 210.381 210.283 209.439 211.433 209.439H214.294C215.445 209.439 216.386 210.381 216.386 211.531C216.385 212.68 215.445 213.622 214.294 213.622Z" fill="#FAF3E3"/>
<path d="M570.635 207.311C550.677 206.283 547.667 176.872 547.667 176.872H567.699C567.699 176.872 571.712 193.141 570.635 207.311Z" fill="#B63515"/>
<path d="M78.5889 222.116C78.5889 222.116 91.1353 221.985 97.5188 218.904C103.902 215.822 118.133 202.394 137.432 196.891C137.432 196.891 121.143 197.111 108.01 201.734C108.01 201.734 86.4725 213.074 78.5889 222.116Z" fill="#B63515"/>
<path d="M510.92 390V383.455H511.926V390H510.92ZM511.432 382.364C511.236 382.364 511.067 382.297 510.925 382.163C510.786 382.03 510.716 381.869 510.716 381.682C510.716 381.494 510.786 381.334 510.925 381.2C511.067 381.067 511.236 381 511.432 381C511.628 381 511.795 381.067 511.935 381.2C512.077 381.334 512.148 381.494 512.148 381.682C512.148 381.869 512.077 382.03 511.935 382.163C511.795 382.297 511.628 382.364 511.432 382.364ZM513.768 390V383.455H514.74V384.477H514.825C514.961 384.128 515.181 383.857 515.485 383.663C515.789 383.467 516.154 383.369 516.581 383.369C517.012 383.369 517.372 383.467 517.659 383.663C517.949 383.857 518.174 384.128 518.336 384.477H518.404C518.572 384.139 518.824 383.871 519.159 383.672C519.494 383.47 519.896 383.369 520.365 383.369C520.95 383.369 521.429 383.553 521.801 383.919C522.173 384.283 522.359 384.849 522.359 385.619V390H521.353V385.619C521.353 385.136 521.221 384.791 520.957 384.584C520.693 384.376 520.382 384.273 520.024 384.273C519.564 384.273 519.207 384.412 518.954 384.69C518.701 384.966 518.575 385.315 518.575 385.739V390H517.552V385.517C517.552 385.145 517.431 384.845 517.19 384.618C516.949 384.388 516.637 384.273 516.257 384.273C515.995 384.273 515.751 384.342 515.524 384.482C515.299 384.621 515.118 384.814 514.978 385.061C514.842 385.305 514.774 385.588 514.774 385.909V390H513.768ZM526.124 390.153C525.709 390.153 525.333 390.075 524.995 389.919C524.657 389.76 524.388 389.531 524.189 389.233C523.99 388.932 523.891 388.568 523.891 388.142C523.891 387.767 523.965 387.463 524.113 387.23C524.26 386.994 524.458 386.81 524.705 386.676C524.952 386.543 525.225 386.443 525.523 386.378C525.824 386.31 526.127 386.256 526.431 386.216C526.828 386.165 527.151 386.126 527.398 386.101C527.648 386.072 527.83 386.026 527.944 385.96C528.06 385.895 528.118 385.781 528.118 385.619V385.585C528.118 385.165 528.003 384.838 527.773 384.605C527.546 384.372 527.201 384.256 526.738 384.256C526.257 384.256 525.881 384.361 525.608 384.571C525.336 384.781 525.144 385.006 525.033 385.244L524.078 384.903C524.249 384.506 524.476 384.196 524.76 383.974C525.047 383.75 525.36 383.594 525.698 383.506C526.039 383.415 526.374 383.369 526.703 383.369C526.914 383.369 527.155 383.395 527.428 383.446C527.703 383.494 527.969 383.595 528.225 383.749C528.483 383.902 528.698 384.134 528.868 384.443C529.039 384.753 529.124 385.168 529.124 385.688V390H528.118V389.114H528.067C527.999 389.256 527.885 389.408 527.726 389.57C527.567 389.732 527.355 389.869 527.091 389.983C526.827 390.097 526.505 390.153 526.124 390.153ZM526.277 389.25C526.675 389.25 527.01 389.172 527.283 389.016C527.559 388.859 527.766 388.658 527.905 388.411C528.047 388.163 528.118 387.903 528.118 387.631V386.71C528.076 386.761 527.982 386.808 527.837 386.851C527.695 386.891 527.53 386.926 527.343 386.957C527.158 386.986 526.978 387.011 526.801 387.034C526.628 387.054 526.488 387.071 526.38 387.085C526.118 387.119 525.874 387.175 525.647 387.251C525.422 387.325 525.24 387.437 525.101 387.588C524.965 387.736 524.897 387.937 524.897 388.193C524.897 388.543 525.026 388.807 525.284 388.986C525.546 389.162 525.877 389.25 526.277 389.25ZM533.602 392.591C533.116 392.591 532.698 392.528 532.349 392.403C531.999 392.281 531.708 392.119 531.475 391.918C531.245 391.719 531.062 391.506 530.925 391.278L531.727 390.716C531.817 390.835 531.933 390.972 532.072 391.125C532.211 391.281 532.401 391.416 532.643 391.53C532.887 391.646 533.207 391.705 533.602 391.705C534.13 391.705 534.566 391.577 534.91 391.321C535.254 391.065 535.425 390.665 535.425 390.119V388.79H535.34C535.266 388.909 535.161 389.057 535.025 389.233C534.891 389.406 534.698 389.561 534.445 389.697C534.195 389.831 533.857 389.898 533.431 389.898C532.903 389.898 532.428 389.773 532.008 389.523C531.59 389.273 531.259 388.909 531.015 388.432C530.773 387.955 530.653 387.375 530.653 386.693C530.653 386.023 530.771 385.439 531.006 384.942C531.242 384.442 531.57 384.055 531.991 383.783C532.411 383.507 532.897 383.369 533.448 383.369C533.874 383.369 534.212 383.44 534.462 383.582C534.715 383.722 534.908 383.881 535.042 384.06C535.178 384.236 535.283 384.381 535.357 384.494H535.46V383.455H536.431V390.188C536.431 390.75 536.303 391.207 536.048 391.56C535.795 391.915 535.454 392.175 535.025 392.339C534.599 392.507 534.124 392.591 533.602 392.591ZM533.567 388.994C533.971 388.994 534.312 388.902 534.59 388.717C534.869 388.533 535.08 388.267 535.225 387.92C535.37 387.574 535.442 387.159 535.442 386.676C535.442 386.205 535.371 385.788 535.229 385.428C535.087 385.067 534.877 384.784 534.599 384.58C534.32 384.375 533.977 384.273 533.567 384.273C533.141 384.273 532.786 384.381 532.502 384.597C532.221 384.812 532.009 385.102 531.867 385.466C531.728 385.83 531.658 386.233 531.658 386.676C531.658 387.131 531.729 387.533 531.871 387.882C532.016 388.229 532.229 388.501 532.511 388.7C532.795 388.896 533.147 388.994 533.567 388.994ZM541.016 390.136C540.386 390.136 539.842 389.997 539.384 389.719C538.93 389.438 538.579 389.045 538.332 388.543C538.087 388.037 537.965 387.449 537.965 386.778C537.965 386.108 538.087 385.517 538.332 385.006C538.579 384.491 538.923 384.091 539.363 383.804C539.806 383.514 540.323 383.369 540.914 383.369C541.255 383.369 541.592 383.426 541.924 383.54C542.256 383.653 542.559 383.838 542.832 384.094C543.104 384.347 543.322 384.682 543.484 385.099C543.646 385.517 543.727 386.031 543.727 386.642V387.068H538.681V386.199H542.704C542.704 385.83 542.63 385.5 542.482 385.21C542.337 384.92 542.13 384.692 541.86 384.524C541.593 384.357 541.278 384.273 540.914 384.273C540.513 384.273 540.167 384.372 539.874 384.571C539.585 384.767 539.362 385.023 539.205 385.338C539.049 385.653 538.971 385.991 538.971 386.352V386.932C538.971 387.426 539.056 387.845 539.227 388.189C539.4 388.53 539.64 388.79 539.947 388.969C540.254 389.145 540.61 389.233 541.016 389.233C541.281 389.233 541.519 389.196 541.732 389.122C541.948 389.045 542.134 388.932 542.29 388.781C542.447 388.628 542.567 388.437 542.653 388.21L543.624 388.483C543.522 388.812 543.35 389.102 543.109 389.352C542.867 389.599 542.569 389.793 542.214 389.932C541.859 390.068 541.46 390.136 541.016 390.136ZM549.773 390V390.938H544.319V390H549.773ZM551.233 392.455V383.455H552.205V384.494H552.324C552.398 384.381 552.5 384.236 552.631 384.06C552.764 383.881 552.955 383.722 553.202 383.582C553.452 383.44 553.79 383.369 554.216 383.369C554.767 383.369 555.253 383.507 555.673 383.783C556.094 384.058 556.422 384.449 556.658 384.955C556.893 385.46 557.011 386.057 557.011 386.744C557.011 387.438 556.893 388.038 556.658 388.547C556.422 389.053 556.095 389.445 555.678 389.723C555.26 389.999 554.778 390.136 554.233 390.136C553.813 390.136 553.476 390.067 553.223 389.928C552.97 389.786 552.776 389.625 552.639 389.446C552.503 389.264 552.398 389.114 552.324 388.994H552.239V392.455H551.233ZM552.222 386.727C552.222 387.222 552.294 387.658 552.439 388.036C552.584 388.411 552.795 388.705 553.074 388.918C553.352 389.128 553.693 389.233 554.097 389.233C554.517 389.233 554.868 389.122 555.149 388.901C555.433 388.676 555.646 388.375 555.788 387.997C555.933 387.616 556.006 387.193 556.006 386.727C556.006 386.267 555.935 385.852 555.793 385.483C555.653 385.111 555.442 384.817 555.158 384.601C554.876 384.382 554.523 384.273 554.097 384.273C553.688 384.273 553.344 384.376 553.065 384.584C552.787 384.788 552.577 385.075 552.435 385.445C552.293 385.811 552.222 386.239 552.222 386.727ZM559.551 381.273V390H558.545V381.273H559.551ZM563.319 390.153C562.904 390.153 562.528 390.075 562.19 389.919C561.852 389.76 561.583 389.531 561.385 389.233C561.186 388.932 561.086 388.568 561.086 388.142C561.086 387.767 561.16 387.463 561.308 387.23C561.456 386.994 561.653 386.81 561.9 386.676C562.147 386.543 562.42 386.443 562.718 386.378C563.02 386.31 563.322 386.256 563.626 386.216C564.024 386.165 564.346 386.126 564.593 386.101C564.843 386.072 565.025 386.026 565.139 385.96C565.255 385.895 565.314 385.781 565.314 385.619V385.585C565.314 385.165 565.199 384.838 564.968 384.605C564.741 384.372 564.396 384.256 563.933 384.256C563.453 384.256 563.076 384.361 562.804 384.571C562.531 384.781 562.339 385.006 562.228 385.244L561.274 384.903C561.444 384.506 561.672 384.196 561.956 383.974C562.243 383.75 562.555 383.594 562.893 383.506C563.234 383.415 563.569 383.369 563.899 383.369C564.109 383.369 564.35 383.395 564.623 383.446C564.899 383.494 565.164 383.595 565.42 383.749C565.679 383.902 565.893 384.134 566.064 384.443C566.234 384.753 566.319 385.168 566.319 385.688V390H565.314V389.114H565.262C565.194 389.256 565.081 389.408 564.922 389.57C564.762 389.732 564.551 389.869 564.287 389.983C564.022 390.097 563.7 390.153 563.319 390.153ZM563.473 389.25C563.87 389.25 564.206 389.172 564.478 389.016C564.754 388.859 564.961 388.658 565.1 388.411C565.243 388.163 565.314 387.903 565.314 387.631V386.71C565.271 386.761 565.177 386.808 565.032 386.851C564.89 386.891 564.725 386.926 564.538 386.957C564.353 386.986 564.173 387.011 563.997 387.034C563.824 387.054 563.683 387.071 563.575 387.085C563.314 387.119 563.069 387.175 562.842 387.251C562.618 387.325 562.436 387.437 562.297 387.588C562.16 387.736 562.092 387.937 562.092 388.193C562.092 388.543 562.221 388.807 562.48 388.986C562.741 389.162 563.072 389.25 563.473 389.25ZM570.814 390.136C570.2 390.136 569.672 389.991 569.229 389.702C568.786 389.412 568.445 389.013 568.206 388.504C567.967 387.996 567.848 387.415 567.848 386.761C567.848 386.097 567.97 385.51 568.214 385.001C568.462 384.49 568.805 384.091 569.246 383.804C569.689 383.514 570.206 383.369 570.797 383.369C571.257 383.369 571.672 383.455 572.041 383.625C572.411 383.795 572.713 384.034 572.949 384.341C573.185 384.648 573.331 385.006 573.388 385.415H572.382C572.305 385.116 572.135 384.852 571.871 384.622C571.609 384.389 571.257 384.273 570.814 384.273C570.422 384.273 570.078 384.375 569.783 384.58C569.49 384.781 569.261 385.067 569.097 385.436C568.935 385.803 568.854 386.233 568.854 386.727C568.854 387.233 568.933 387.673 569.092 388.048C569.254 388.423 569.482 388.714 569.774 388.922C570.07 389.129 570.416 389.233 570.814 389.233C571.075 389.233 571.312 389.188 571.526 389.097C571.739 389.006 571.919 388.875 572.067 388.705C572.214 388.534 572.32 388.33 572.382 388.091H573.388C573.331 388.477 573.19 388.825 572.966 389.135C572.744 389.442 572.45 389.686 572.084 389.868C571.72 390.047 571.297 390.136 570.814 390.136ZM577.602 390.136C576.972 390.136 576.428 389.997 575.97 389.719C575.516 389.438 575.165 389.045 574.918 388.543C574.673 388.037 574.551 387.449 574.551 386.778C574.551 386.108 574.673 385.517 574.918 385.006C575.165 384.491 575.509 384.091 575.949 383.804C576.392 383.514 576.909 383.369 577.5 383.369C577.841 383.369 578.178 383.426 578.51 383.54C578.842 383.653 579.145 383.838 579.418 384.094C579.69 384.347 579.908 384.682 580.07 385.099C580.232 385.517 580.312 386.031 580.312 386.642V387.068H575.267V386.199H579.29C579.29 385.83 579.216 385.5 579.068 385.21C578.923 384.92 578.716 384.692 578.446 384.524C578.179 384.357 577.864 384.273 577.5 384.273C577.099 384.273 576.753 384.372 576.46 384.571C576.17 384.767 575.947 385.023 575.791 385.338C575.635 385.653 575.557 385.991 575.557 386.352V386.932C575.557 387.426 575.642 387.845 575.812 388.189C575.986 388.53 576.226 388.79 576.533 388.969C576.839 389.145 577.196 389.233 577.602 389.233C577.866 389.233 578.105 389.196 578.318 389.122C578.534 389.045 578.72 388.932 578.876 388.781C579.033 388.628 579.153 388.437 579.239 388.21L580.21 388.483C580.108 388.812 579.936 389.102 579.695 389.352C579.453 389.599 579.155 389.793 578.8 389.932C578.445 390.068 578.045 390.136 577.602 390.136ZM582.848 386.062V390H581.842V381.273H582.848V384.477H582.933C583.087 384.139 583.317 383.871 583.624 383.672C583.933 383.47 584.345 383.369 584.859 383.369C585.305 383.369 585.696 383.459 586.031 383.638C586.366 383.814 586.626 384.085 586.811 384.452C586.999 384.815 587.092 385.278 587.092 385.841V390H586.087V385.909C586.087 385.389 585.952 384.987 585.682 384.703C585.415 384.416 585.044 384.273 584.57 384.273C584.24 384.273 583.945 384.342 583.683 384.482C583.425 384.621 583.22 384.824 583.07 385.091C582.922 385.358 582.848 385.682 582.848 386.062ZM591.591 390.136C591 390.136 590.482 389.996 590.036 389.714C589.593 389.433 589.246 389.04 588.996 388.534C588.749 388.028 588.625 387.437 588.625 386.761C588.625 386.08 588.749 385.484 588.996 384.976C589.246 384.467 589.593 384.072 590.036 383.791C590.482 383.51 591 383.369 591.591 383.369C592.182 383.369 592.699 383.51 593.142 383.791C593.588 384.072 593.935 384.467 594.182 384.976C594.432 385.484 594.557 386.08 594.557 386.761C594.557 387.437 594.432 388.028 594.182 388.534C593.935 389.04 593.588 389.433 593.142 389.714C592.699 389.996 592.182 390.136 591.591 390.136ZM591.591 389.233C592.04 389.233 592.409 389.118 592.699 388.888C592.989 388.658 593.203 388.355 593.343 387.98C593.482 387.605 593.551 387.199 593.551 386.761C593.551 386.324 593.482 385.916 593.343 385.538C593.203 385.161 592.989 384.855 592.699 384.622C592.409 384.389 592.04 384.273 591.591 384.273C591.142 384.273 590.773 384.389 590.483 384.622C590.194 384.855 589.979 385.161 589.84 385.538C589.701 385.916 589.631 386.324 589.631 386.761C589.631 387.199 589.701 387.605 589.84 387.98C589.979 388.355 590.194 388.658 590.483 388.888C590.773 389.118 591.142 389.233 591.591 389.233ZM597.098 381.273V390H596.092V381.273H597.098ZM601.412 390.136C600.866 390.136 600.385 389.999 599.967 389.723C599.549 389.445 599.223 389.053 598.987 388.547C598.751 388.038 598.633 387.438 598.633 386.744C598.633 386.057 598.751 385.46 598.987 384.955C599.223 384.449 599.551 384.058 599.971 383.783C600.392 383.507 600.877 383.369 601.429 383.369C601.855 383.369 602.191 383.44 602.439 383.582C602.689 383.722 602.879 383.881 603.01 384.06C603.143 384.236 603.247 384.381 603.321 384.494H603.406V381.273H604.412V390H603.44V388.994H603.321C603.247 389.114 603.142 389.264 603.005 389.446C602.869 389.625 602.674 389.786 602.422 389.928C602.169 390.067 601.832 390.136 601.412 390.136ZM601.548 389.233C601.951 389.233 602.292 389.128 602.571 388.918C602.849 388.705 603.061 388.411 603.206 388.036C603.35 387.658 603.423 387.222 603.423 386.727C603.423 386.239 603.352 385.811 603.21 385.445C603.068 385.075 602.858 384.788 602.579 384.584C602.301 384.376 601.957 384.273 601.548 384.273C601.122 384.273 600.767 384.382 600.483 384.601C600.201 384.817 599.99 385.111 599.848 385.483C599.708 385.852 599.639 386.267 599.639 386.727C599.639 387.193 599.71 387.616 599.852 387.997C599.997 388.375 600.21 388.676 600.491 388.901C600.775 389.122 601.127 389.233 601.548 389.233ZM609.137 390.136C608.507 390.136 607.963 389.997 607.505 389.719C607.051 389.438 606.7 389.045 606.453 388.543C606.208 388.037 606.086 387.449 606.086 386.778C606.086 386.108 606.208 385.517 606.453 385.006C606.7 384.491 607.044 384.091 607.484 383.804C607.927 383.514 608.444 383.369 609.035 383.369C609.376 383.369 609.713 383.426 610.045 383.54C610.377 383.653 610.68 383.838 610.953 384.094C611.225 384.347 611.443 384.682 611.605 385.099C611.767 385.517 611.848 386.031 611.848 386.642V387.068H606.802V386.199H610.825C610.825 385.83 610.751 385.5 610.603 385.21C610.458 384.92 610.251 384.692 609.981 384.524C609.714 384.357 609.399 384.273 609.035 384.273C608.635 384.273 608.288 384.372 607.995 384.571C607.706 384.767 607.483 385.023 607.326 385.338C607.17 385.653 607.092 385.991 607.092 386.352V386.932C607.092 387.426 607.177 387.845 607.348 388.189C607.521 388.53 607.761 388.79 608.068 388.969C608.375 389.145 608.731 389.233 609.137 389.233C609.402 389.233 609.64 389.196 609.853 389.122C610.069 389.045 610.255 388.932 610.412 388.781C610.568 388.628 610.689 388.437 610.774 388.21L611.745 388.483C611.643 388.812 611.471 389.102 611.23 389.352C610.988 389.599 610.69 389.793 610.335 389.932C609.98 390.068 609.581 390.136 609.137 390.136ZM613.377 390V383.455H614.349V384.443H614.417C614.537 384.119 614.752 383.857 615.065 383.655C615.377 383.453 615.73 383.352 616.122 383.352C616.196 383.352 616.288 383.354 616.399 383.357C616.51 383.359 616.593 383.364 616.65 383.369V384.392C616.616 384.384 616.538 384.371 616.416 384.354C616.297 384.334 616.17 384.324 616.037 384.324C615.718 384.324 615.434 384.391 615.184 384.524C614.937 384.655 614.741 384.837 614.596 385.07C614.454 385.3 614.383 385.562 614.383 385.858V390H613.377ZM625.734 390V390.938H620.28V390H625.734ZM629.024 390.119C628.462 390.119 627.96 390.023 627.52 389.83C627.082 389.636 626.734 389.368 626.476 389.024C626.22 388.678 626.081 388.276 626.058 387.818H627.132C627.155 388.099 627.251 388.342 627.422 388.547C627.592 388.749 627.815 388.905 628.091 389.016C628.366 389.126 628.672 389.182 629.007 389.182C629.382 389.182 629.714 389.116 630.004 388.986C630.294 388.855 630.521 388.673 630.686 388.44C630.851 388.207 630.933 387.938 630.933 387.631C630.933 387.31 630.854 387.027 630.695 386.783C630.536 386.536 630.303 386.342 629.996 386.203C629.689 386.064 629.314 385.994 628.871 385.994H628.172V385.057H628.871C629.217 385.057 629.521 384.994 629.783 384.869C630.047 384.744 630.253 384.568 630.401 384.341C630.551 384.114 630.626 383.847 630.626 383.54C630.626 383.244 630.561 382.987 630.43 382.768C630.3 382.55 630.115 382.379 629.876 382.257C629.641 382.135 629.362 382.074 629.041 382.074C628.74 382.074 628.456 382.129 628.189 382.24C627.925 382.348 627.709 382.506 627.541 382.713C627.374 382.918 627.283 383.165 627.268 383.455H626.246C626.263 382.997 626.401 382.597 626.659 382.253C626.918 381.906 627.256 381.636 627.673 381.443C628.094 381.25 628.555 381.153 629.058 381.153C629.598 381.153 630.061 381.263 630.447 381.482C630.834 381.697 631.131 381.983 631.338 382.338C631.545 382.693 631.649 383.077 631.649 383.489C631.649 383.98 631.52 384.399 631.261 384.746C631.006 385.092 630.658 385.332 630.217 385.466V385.534C630.768 385.625 631.199 385.859 631.509 386.237C631.818 386.612 631.973 387.077 631.973 387.631C631.973 388.105 631.844 388.531 631.585 388.909C631.33 389.284 630.98 389.58 630.537 389.795C630.094 390.011 629.589 390.119 629.024 390.119Z" fill="#6A6A6A"/>
</svg>
