<svg width="41" height="40" viewBox="0 0 41 40" fill="none" xmlns="http://www.w3.org/2000/svg">
<g clip-path="url(#clip0_133_11)">
<path d="M20.3855 0C9.19474 0 0.121582 8.955 0.121582 20C0.121582 31.045 9.19474 40 20.3855 40C31.5762 40 40.6494 31.045 40.6494 20C40.6494 8.955 31.5762 0 20.3855 0ZM25.4514 13.3333H23.1718C22.2633 13.3333 22.0741 13.7017 22.0741 14.63V16.6667H25.4514L25.0985 20H22.0741V31.6667H17.0082V20H13.6308V16.6667H17.0082V12.82C17.0082 9.87167 18.5803 8.33333 22.1231 8.33333H25.4514V13.3333Z" fill="white"/>
</g>
<defs>
<clipPath id="clip0_133_11">
<rect width="40.5278" height="40" fill="white" transform="translate(0.121582)"/>
</clipPath>
</defs>
</svg>
