<svg width="41" height="40" viewBox="0 0 41 40" fill="none" xmlns="http://www.w3.org/2000/svg">
<g clip-path="url(#clip0_133_13)">
<path d="M25.1392 10.5033C23.893 10.4467 23.5181 10.4367 20.362 10.4367C17.2059 10.4367 16.8327 10.4483 15.5865 10.5033C12.3797 10.6483 10.887 12.1467 10.7401 15.2867C10.6843 16.5167 10.6708 16.885 10.6708 20C10.6708 23.115 10.6843 23.4833 10.7401 24.715C10.887 27.8467 12.373 29.3533 15.5865 29.4983C16.8311 29.5533 17.2059 29.5667 20.362 29.5667C23.5198 29.5667 23.893 29.555 25.1392 29.4983C28.346 29.355 29.8371 27.8517 29.9857 24.715C30.0414 23.485 30.0532 23.115 30.0532 20C30.0532 16.885 30.0414 16.5167 29.9857 15.2867C29.8371 12.1483 28.3426 10.6483 25.1392 10.5033V10.5033ZM20.362 25.9917C17.01 25.9917 14.2913 23.31 14.2913 20C14.2913 16.6917 17.01 14.01 20.362 14.01C23.714 14.01 26.4328 16.6917 26.4328 20C26.4328 23.3083 23.714 25.9917 20.362 25.9917ZM26.6725 15.1733C25.889 15.1733 25.2541 14.5467 25.2541 13.7733C25.2541 13 25.889 12.3733 26.6725 12.3733C27.4561 12.3733 28.091 13 28.091 13.7733C28.091 14.545 27.4561 15.1733 26.6725 15.1733V15.1733ZM24.3017 20C24.3017 22.1483 22.537 23.8883 20.362 23.8883C18.187 23.8883 16.4224 22.1483 16.4224 20C16.4224 17.8517 18.187 16.1117 20.362 16.1117C22.537 16.1117 24.3017 17.8517 24.3017 20ZM20.362 0C9.1713 0 0.0981445 8.955 0.0981445 20C0.0981445 31.045 9.1713 40 20.362 40C31.5528 40 40.6259 31.045 40.6259 20C40.6259 8.955 31.5528 0 20.362 0ZM32.1117 24.81C31.9175 29.0517 29.5247 31.4017 25.2372 31.5967C23.9758 31.6533 23.5722 31.6667 20.362 31.6667C17.1519 31.6667 16.75 31.6533 15.4886 31.5967C11.1926 31.4017 8.80993 29.0483 8.61235 24.81C8.55494 23.5667 8.54143 23.1683 8.54143 20C8.54143 16.8317 8.55494 16.435 8.61235 15.19C8.80993 10.95 11.1943 8.59833 15.4886 8.405C16.75 8.34667 17.1519 8.33333 20.362 8.33333C23.5722 8.33333 23.9758 8.34667 25.2372 8.405C29.5348 8.6 31.9192 10.9583 32.1117 15.19C32.1691 16.435 32.1826 16.8317 32.1826 20C32.1826 23.1683 32.1691 23.5667 32.1117 24.81Z" fill="white"/>
</g>
<defs>
<clipPath id="clip0_133_13">
<rect width="40.5278" height="40" fill="white" transform="translate(0.0981445)"/>
</clipPath>
</defs>
</svg>
