<svg width="41" height="40" viewBox="0 0 41 40" fill="none" xmlns="http://www.w3.org/2000/svg">
<g clip-path="url(#clip0_133_9)">
<path d="M20.2639 0C9.07316 0 0 8.955 0 20C0 31.045 9.07316 40 20.2639 40C31.4546 40 40.5278 31.045 40.5278 20C40.5278 8.955 31.4546 0 20.2639 0ZM30.5073 16.075C30.8163 22.8083 25.7284 30.315 16.7211 30.315C13.9821 30.315 11.4339 29.5217 9.28761 28.1633C11.8611 28.4633 14.4296 27.7567 16.4678 26.1817C14.3468 26.1433 12.5552 24.7583 11.9354 22.8567C12.697 23 13.4468 22.9583 14.1273 22.775C11.7953 22.3117 10.1843 20.2383 10.2366 18.02C10.8918 18.3783 11.6382 18.5933 12.4336 18.6183C10.2738 17.1933 9.6625 14.3783 10.9324 12.2267C13.3235 15.1233 16.8984 17.0283 20.9292 17.2283C20.2217 14.235 22.5233 11.35 25.6558 11.35C27.0489 11.35 28.3103 11.9317 29.1952 12.8617C30.2996 12.6483 31.3398 12.2483 32.2753 11.7C31.9122 12.8183 31.1439 13.755 30.1425 14.3483C31.1236 14.2317 32.0592 13.975 32.9271 13.5933C32.2787 14.5567 31.458 15.4 30.5073 16.075Z" fill="white"/>
</g>
<defs>
<clipPath id="clip0_133_9">
<rect width="41" height="40" fill="white"/>
</clipPath>
</defs>
</svg>
