<svg width="640" height="400" viewBox="0 0 640 400" fill="none" xmlns="http://www.w3.org/2000/svg">
<rect width="640" height="400" fill="#CCCCCC"/>
<path d="M581.634 272.501C581.634 272.501 576.477 299.354 574.53 310.252L572.356 304.619L471.786 305.266C471.786 305.266 457.771 280.728 481.512 252.678C505.253 224.628 541.447 235.04 541.447 235.04C541.447 235.04 570.445 235.527 581.634 272.501Z" fill="#151611"/>
<path d="M104.777 307.528L112.95 299.638L208.17 304.619L222.702 301.301C222.702 301.301 230.876 230.077 160.432 229.3C160.432 229.3 89.9869 232.803 104.777 307.528Z" fill="#151611"/>
<path d="M450.498 114.403C450.498 114.403 463.805 81.6015 474.703 60" stroke="#585953" stroke-width="0.5" stroke-miterlimit="10" stroke-linecap="round" stroke-linejoin="round"/>
<path d="M160.431 240.101C132.864 240.101 110.517 262.448 110.517 290.014C110.517 317.581 132.864 339.928 160.431 339.928C187.998 339.928 210.345 317.581 210.345 290.014C210.345 262.448 187.998 240.101 160.431 240.101ZM160.431 327.349C139.811 327.349 123.096 310.634 123.096 290.014C123.096 269.395 139.811 252.68 160.431 252.68C181.051 252.68 197.765 269.395 197.765 290.014C197.765 310.634 181.051 327.349 160.431 327.349Z" fill="#151611"/>
<path d="M160.431 240.1C147.34 240.109 134.402 245.533 125.247 254.83C116.048 264.097 110.88 277.072 111.052 290.014C111.138 302.972 116.596 315.682 125.786 324.661C134.879 333.746 147.622 338.951 160.433 338.856C173.242 338.942 185.985 333.743 195.078 324.659C204.259 315.676 209.722 302.974 209.808 290.014C209.979 277.074 204.813 264.099 195.617 254.83C186.46 245.533 173.521 240.109 160.431 240.1ZM160.431 240.1C173.519 240.004 186.548 245.327 195.836 254.609C205.221 263.784 210.8 276.777 210.884 290.014C211.058 303.234 205.773 316.498 196.375 325.959C187.025 335.453 173.801 341.002 160.431 341C147.063 340.993 133.839 335.451 124.488 325.957C115.097 316.492 109.808 303.234 109.982 290.014C110.064 276.777 115.645 263.786 125.025 254.609C134.314 245.327 147.342 240.004 160.431 240.1Z" fill="#FAF3E3"/>
<path d="M160.43 327.348C150.641 327.434 140.885 323.464 133.92 316.524C126.881 309.671 122.656 299.951 122.561 290.014C122.398 280.092 126.331 270.107 133.383 262.967C140.41 255.813 150.362 251.625 160.43 251.607C170.501 251.618 180.453 255.811 187.479 262.965C194.538 270.101 198.465 280.094 198.304 290.014C198.209 299.953 193.984 309.673 186.94 316.524C179.976 323.464 170.219 327.434 160.43 327.348ZM160.43 327.348C170.221 327.329 179.888 323.258 186.719 316.302C193.574 309.358 197.387 299.657 197.225 290.014C197.129 280.354 193.019 270.923 186.18 264.264C179.411 257.521 169.942 253.676 160.43 253.751C150.918 253.667 141.447 257.519 134.679 264.262C127.833 270.917 123.727 280.354 123.631 290.014C123.472 299.657 127.285 309.36 134.142 316.302C140.973 323.258 150.639 327.329 160.43 327.348Z" fill="#FAF3E3"/>
<path d="M160.431 327.348C181.05 327.348 197.765 310.633 197.765 290.014C197.765 269.395 181.05 252.68 160.431 252.68C139.812 252.68 123.097 269.395 123.097 290.014C123.097 310.633 139.812 327.348 160.431 327.348Z" fill="#585953"/>
<path d="M160.431 252.68C139.811 252.68 123.097 269.394 123.097 290.014C123.097 310.634 139.811 327.348 160.431 327.348C181.051 327.348 197.765 310.634 197.765 290.014C197.765 269.394 181.051 252.68 160.431 252.68ZM171.732 273.261C174.007 269.626 176.248 266.185 178.675 263.433C179.925 262.033 182.903 262.202 184.423 263.607C187.134 266.224 189.463 269.147 191.405 272.376C192.432 274.174 191.929 277.115 190.286 278.017C187.059 279.765 183.203 281.177 179.152 282.579C177.67 283.078 175.876 282.728 174.912 281.662C173.752 280.373 172.673 279.02 171.676 277.6C170.854 276.421 170.914 274.595 171.732 273.261ZM129.55 272.496C131.494 269.267 133.824 266.348 136.54 263.734C138.063 262.331 141.042 262.166 142.29 263.566C144.715 266.32 146.952 269.764 149.222 273.4C150.038 274.734 150.099 276.56 149.274 277.74C148.277 279.16 147.196 280.511 146.034 281.8C145.068 282.865 143.274 283.213 141.792 282.713C137.74 281.308 133.887 279.89 130.662 278.139C129.019 277.235 128.521 274.294 129.55 272.496ZM132.699 305.919C130.965 306.638 128.355 305.195 127.593 303.27C126.282 299.736 125.453 296.093 125.101 292.343C124.955 290.276 126.682 287.844 128.555 287.743C132.22 287.565 136.308 287.965 140.567 288.457C142.118 288.65 143.583 289.741 143.991 291.122C144.479 292.787 144.864 294.474 145.145 296.186C145.375 297.605 144.528 299.225 143.214 300.072C139.59 302.361 136.078 304.49 132.699 305.919ZM155.684 321.652C155.166 323.456 152.41 324.594 150.429 323.991C146.851 322.812 143.485 321.19 140.333 319.123C138.628 317.95 137.803 315.083 138.892 313.555C141.038 310.58 143.899 307.633 146.941 304.61C148.06 303.519 149.826 303.053 151.16 303.594C152.764 304.252 154.324 305.004 155.838 305.85C157.093 306.557 157.83 308.228 157.673 309.783C157.2 314.047 156.674 318.12 155.684 321.652ZM157.834 273.525C156.397 273.433 155.009 272.249 154.474 270.778C153.048 266.735 151.75 262.838 151.11 259.225C150.792 257.375 152.779 255.152 154.827 254.834C158.562 254.342 162.298 254.342 166.035 254.834C168.083 255.15 170.07 257.375 169.752 259.225C169.109 262.838 167.814 266.735 166.388 270.778C165.853 272.247 164.465 273.433 163.028 273.525C161.297 273.63 159.565 273.63 157.834 273.525ZM180.868 319.061C177.715 321.123 174.349 322.743 170.768 323.918C168.785 324.519 166.031 323.376 165.516 321.572C164.528 318.038 164.008 313.966 163.542 309.702C163.387 308.146 164.124 306.475 165.378 305.77C166.893 304.924 168.452 304.174 170.059 303.519C171.393 302.98 173.159 303.446 174.278 304.537C177.315 307.562 180.172 310.514 182.316 313.491C183.403 315.025 182.576 317.89 180.868 319.061ZM188.385 305.76C185.006 304.327 181.498 302.194 177.874 299.902C176.561 299.053 175.715 297.434 175.947 296.014C176.23 294.304 176.617 292.615 177.107 290.953C177.517 289.574 178.982 288.482 180.533 288.291C184.793 287.804 188.881 287.408 192.545 287.591C194.419 287.694 196.144 290.128 195.995 292.194C195.641 295.945 194.807 299.588 193.493 303.12C192.728 305.04 190.118 306.482 188.385 305.76Z" fill="#FAF3E3"/>
<path d="M160.431 304.619C168.497 304.619 175.036 298.08 175.036 290.014C175.036 281.948 168.497 275.409 160.431 275.409C152.365 275.409 145.826 281.948 145.826 290.014C145.826 298.08 152.365 304.619 160.431 304.619Z" stroke="#585953" stroke-width="0.5" stroke-miterlimit="10"/>
<path d="M160.431 299.637C165.746 299.637 170.054 295.329 170.054 290.014C170.054 284.699 165.746 280.39 160.431 280.39C155.116 280.39 150.807 284.699 150.807 290.014C150.807 295.329 155.116 299.637 160.431 299.637Z" stroke="#585953" stroke-width="0.5" stroke-miterlimit="10"/>
<path d="M524.617 240.101C497.051 240.101 474.704 262.448 474.704 290.014C474.704 317.581 497.051 339.928 524.617 339.928C552.184 339.928 574.531 317.581 574.531 290.014C574.531 262.448 552.184 240.101 524.617 240.101ZM524.617 327.349C503.998 327.349 487.283 310.634 487.283 290.014C487.283 269.395 503.998 252.68 524.617 252.68C545.237 252.68 561.952 269.395 561.952 290.014C561.952 310.634 545.237 327.349 524.617 327.349Z" fill="#151611"/>
<path d="M524.617 240.1C511.527 240.109 498.589 245.533 489.433 254.83C480.235 264.097 475.067 277.072 475.238 290.014C475.324 302.972 480.783 315.682 489.972 324.661C499.065 333.746 511.808 338.951 524.619 338.856C537.429 338.942 550.171 333.743 559.264 324.659C568.445 315.676 573.908 302.974 573.994 290.014C574.166 277.074 569 264.099 559.804 254.83C550.646 245.533 537.708 240.109 524.617 240.1ZM524.617 240.1C537.706 240.004 550.734 245.327 560.023 254.609C569.408 263.784 574.986 276.777 575.07 290.014C575.244 303.234 569.96 316.498 560.562 325.959C551.211 335.453 537.987 341.002 524.617 341C511.25 340.993 498.026 335.451 488.675 325.957C479.283 316.492 473.995 303.234 474.169 290.014C474.252 276.777 479.831 263.786 489.212 254.609C498.5 245.327 511.529 240.004 524.617 240.1Z" fill="#FAF3E3"/>
<path d="M524.616 327.348C514.827 327.434 505.071 323.464 498.106 316.524C491.067 309.671 486.842 299.951 486.747 290.014C486.584 280.092 490.517 270.107 497.569 262.967C504.596 255.813 514.548 251.625 524.616 251.607C534.687 251.618 544.639 255.811 551.665 262.965C558.724 270.101 562.653 280.094 562.49 290.014C562.395 299.953 558.17 309.673 551.126 316.524C544.162 323.464 534.405 327.434 524.616 327.348ZM524.616 327.348C534.407 327.329 544.074 323.258 550.905 316.302C557.76 309.358 561.573 299.657 561.411 290.014C561.315 280.354 557.205 270.923 550.366 264.264C543.597 257.521 534.126 253.676 524.616 253.751C515.104 253.667 505.633 257.519 498.865 264.262C492.019 270.917 487.914 280.354 487.817 290.014C487.658 299.657 491.471 309.36 498.328 316.302C505.159 323.258 514.825 327.329 524.616 327.348Z" fill="#FAF3E3"/>
<path d="M524.617 327.348C545.236 327.348 561.951 310.633 561.951 290.014C561.951 269.395 545.236 252.68 524.617 252.68C503.998 252.68 487.283 269.395 487.283 290.014C487.283 310.633 503.998 327.348 524.617 327.348Z" fill="#585953"/>
<path d="M524.617 252.68C503.997 252.68 487.283 269.394 487.283 290.014C487.283 310.634 503.997 327.348 524.617 327.348C545.237 327.348 561.951 310.634 561.951 290.014C561.951 269.394 545.237 252.68 524.617 252.68ZM535.918 273.261C538.193 269.626 540.434 266.185 542.861 263.433C544.111 262.033 547.089 262.202 548.609 263.607C551.322 266.224 553.649 269.147 555.591 272.376C556.618 274.174 556.115 277.115 554.469 278.017C551.243 279.765 547.387 281.177 543.336 282.579C541.854 283.078 540.06 282.728 539.095 281.662C537.935 280.373 536.857 279.02 535.862 277.6C535.04 276.421 535.102 274.595 535.918 273.261ZM493.736 272.496C495.68 269.267 498.01 266.348 500.726 263.734C502.249 262.331 505.228 262.166 506.474 263.566C508.899 266.32 511.135 269.764 513.408 273.4C514.224 274.734 514.285 276.56 513.46 277.74C512.463 279.16 511.382 280.511 510.22 281.8C509.254 282.865 507.46 283.213 505.978 282.713C501.926 281.308 498.073 279.89 494.848 278.139C493.205 277.235 492.707 274.294 493.736 272.496ZM496.885 305.919C495.151 306.638 492.541 305.195 491.779 303.27C490.468 299.736 489.639 296.093 489.289 292.343C489.143 290.276 490.87 287.844 492.743 287.743C496.408 287.565 500.496 287.965 504.755 288.457C506.306 288.65 507.771 289.741 508.18 291.122C508.667 292.787 509.052 294.474 509.333 296.186C509.563 297.605 508.717 299.225 507.402 300.072C503.776 302.361 500.266 304.49 496.885 305.919ZM519.87 321.652C519.352 323.456 516.596 324.594 514.615 323.991C511.037 322.812 507.671 321.19 504.519 319.123C502.814 317.95 501.989 315.083 503.078 313.555C505.226 310.58 508.085 307.633 511.125 304.61C512.244 303.519 514.01 303.053 515.344 303.594C516.948 304.252 518.508 305.004 520.02 305.85C521.275 306.557 522.011 308.228 521.852 309.783C521.386 314.047 520.86 318.12 519.87 321.652ZM522.022 273.525C520.587 273.433 519.197 272.249 518.662 270.778C517.236 266.735 515.939 262.838 515.298 259.225C514.981 257.375 516.968 255.152 519.015 254.834C522.75 254.342 526.486 254.342 530.224 254.834C532.271 255.15 534.258 257.375 533.94 259.225C533.298 262.838 532.002 266.735 530.576 270.778C530.041 272.247 528.653 273.433 527.216 273.525C525.483 273.63 523.751 273.63 522.022 273.525ZM545.054 319.061C541.901 321.123 538.533 322.743 534.954 323.918C532.973 324.519 530.217 323.376 529.702 321.572C528.713 318.038 528.194 313.966 527.727 309.702C527.573 308.146 528.31 306.475 529.564 305.77C531.079 304.924 532.638 304.174 534.245 303.519C535.579 302.98 537.345 303.446 538.462 304.537C541.499 307.562 544.356 310.514 546.5 313.491C547.589 315.025 546.762 317.89 545.054 319.061ZM552.573 305.76C549.194 304.327 545.686 302.194 542.062 299.902C540.749 299.053 539.903 297.434 540.135 296.014C540.419 294.304 540.805 292.615 541.295 290.953C541.705 289.574 543.17 288.482 544.721 288.291C548.981 287.804 553.069 287.408 556.734 287.591C558.607 287.694 560.332 290.128 560.183 292.194C559.829 295.945 558.996 299.588 557.681 303.12C556.916 305.04 554.304 306.482 552.573 305.76Z" fill="#FAF3E3"/>
<path d="M524.617 304.619C532.683 304.619 539.222 298.08 539.222 290.014C539.222 281.948 532.683 275.409 524.617 275.409C516.551 275.409 510.012 281.948 510.012 290.014C510.012 298.08 516.551 304.619 524.617 304.619Z" stroke="#585953" stroke-width="0.5" stroke-miterlimit="10"/>
<path d="M524.617 299.637C529.932 299.637 534.24 295.329 534.24 290.014C534.24 284.699 529.932 280.39 524.617 280.39C519.302 280.39 514.993 284.699 514.993 290.014C514.993 295.329 519.302 299.637 524.617 299.637Z" stroke="#585953" stroke-width="0.5" stroke-miterlimit="10"/>
<path d="M567.041 203.435C563.099 197.607 558.5 197.4 556.449 197.66C558.333 201.497 563.26 210.051 575.505 225.506C576.381 222.003 572.295 211.204 567.041 203.435Z" fill="#FAF3E3"/>
<path d="M567.041 203.435C565.823 201.714 564.355 200.105 562.504 199.081C560.678 198.035 558.51 197.611 556.489 197.972L556.73 197.523C559.451 202.425 562.877 206.898 566.179 211.422C569.494 215.943 572.862 220.431 576.155 224.993L574.701 225.307C575.077 223.737 574.651 221.632 574.228 219.765C573.766 217.849 573.152 215.954 572.458 214.09C571.094 210.341 569.229 206.775 567.041 203.435ZM567.041 203.435C569.281 206.747 571.219 210.255 572.98 213.866C573.848 215.679 574.643 217.533 575.296 219.456C575.882 221.413 576.613 223.296 576.308 225.707C576.254 226.136 575.863 226.439 575.433 226.385C575.233 226.36 575.062 226.263 574.939 226.121L574.853 226.02C571.167 221.741 567.698 217.271 564.529 212.58C562.946 210.234 561.458 207.821 560.059 205.355C558.656 202.894 557.312 200.395 556.165 197.796L556.154 197.77C556.087 197.618 556.156 197.44 556.309 197.373C556.341 197.358 556.375 197.351 556.407 197.347C558.605 197.186 560.781 197.8 562.585 198.935C564.39 200.092 565.863 201.673 567.041 203.435Z" fill="#B63515"/>
<path d="M301.998 114.878C302.187 114.812 302.389 114.756 302.578 114.692C297.388 114.356 290.905 115.755 290.905 115.755C251.848 128.502 184.193 171.168 174.801 177.15H195.844C195.844 177.15 249.167 133.558 301.998 114.878Z" fill="#FAF3E3"/>
<path d="M301.998 114.878L302.578 114.687V114.691C298.662 114.504 294.746 115.041 290.918 115.804L290.922 115.802C280.529 119.303 270.509 123.812 260.692 128.673C250.879 133.556 241.219 138.735 231.679 144.127C222.135 149.512 212.718 155.117 203.322 160.753C193.928 166.39 184.599 172.145 175.379 178.05L174.803 176.076L195.846 176.16L195.223 176.383C211.429 163.544 228.635 152.122 246.366 141.603C255.227 136.331 264.373 131.569 273.572 126.938C282.817 122.397 292.316 118.384 301.998 114.878ZM301.998 114.878C292.346 118.468 282.89 122.562 273.688 127.18C264.505 131.827 255.549 136.916 246.802 142.331C238.061 147.757 229.488 153.446 221.1 159.392C212.741 165.37 204.449 171.481 196.471 177.91C196.289 178.059 196.065 178.132 195.846 178.134L174.803 178.218C174.213 178.222 173.731 177.745 173.727 177.154C173.725 176.772 173.927 176.435 174.228 176.244C183.525 170.398 192.914 164.721 202.372 159.155C211.837 153.598 221.439 148.281 231.099 143.074C240.77 137.889 250.557 132.914 260.485 128.244C270.427 123.619 280.444 119.08 290.89 115.701L290.896 115.699C294.741 114.968 298.662 114.464 302.58 114.685L302.578 114.691L301.998 114.878Z" fill="#B63515"/>
<path d="M575.503 225.506C563.259 210.05 558.331 201.497 556.447 197.66C555.764 197.746 555.363 197.886 555.363 197.886C555.363 197.886 555.764 197.748 556.447 197.66C555.59 195.918 555.363 195.149 555.363 195.149C529.968 160.706 500.513 129.614 479.762 121.591C457.948 113.155 355.579 96.3268 302.578 114.689C303.184 114.728 303.775 114.786 304.333 114.876C303.775 114.783 303.184 114.728 302.578 114.689C302.389 114.753 302.185 114.809 301.998 114.876C249.165 133.558 195.847 177.146 195.847 177.146H174.804H167.436C91.1536 188.627 81.036 212.757 81.036 212.757L71.1116 219.762C65.2731 230.464 64.3 243.308 64.3 243.308L60.9918 246.616C60.9918 246.616 58.4614 250.702 58.0253 259.459C57.5892 268.217 62.938 267.244 62.938 267.244L61.7695 284.369C54.3756 287.873 60.2121 295.071 60.2121 295.071C67.0238 300.229 104.775 307.526 104.775 307.526C104.386 301.298 105.677 286.227 105.677 286.227C107.625 256.394 132.441 232.801 162.766 232.801C194.362 232.801 219.976 258.415 219.976 290.012V307.526C305.987 305.58 471.788 305.266 471.788 305.266C470.392 300.422 469.644 295.305 469.644 290.012C469.644 259.651 494.257 235.04 524.617 235.04C547.333 235.04 566.831 248.818 575.209 268.473L576.67 272.499H581.632C584.553 238.642 575.503 225.506 575.503 225.506Z" fill="#B63515"/>
<path d="M101.284 209.557L163.152 201.792C164.808 201.583 166.372 200.92 167.669 199.871L195.846 177.148" stroke="#151611" stroke-width="0.5" stroke-miterlimit="10"/>
<path d="M88.4854 224.63C88.4854 224.63 112.682 236.49 125.951 246.225" stroke="#151611" stroke-width="0.5" stroke-miterlimit="10"/>
<path d="M58.2251 291.056C58.2251 291.056 82.5934 294.102 96.408 294.295C96.408 294.295 96.9149 230.041 160.527 226.576C224.842 223.072 231.069 289.237 229.901 295.464L377.406 293.907C377.406 293.907 418.465 297.215 428.196 266.273C437.925 235.332 434.617 204.392 433.062 193.688C433.062 193.688 431.519 182.179 427.223 174.617" stroke="#151611" stroke-width="0.5" stroke-miterlimit="10"/>
<path d="M426.65 270.301C426.65 270.301 418.173 288.556 382.269 290.014C346.366 291.475 238.657 292.057 238.657 292.057C238.657 292.057 223.478 221.418 240.7 179.678" stroke="#151611" stroke-width="0.5" stroke-miterlimit="10"/>
<path d="M165.908 200.962C165.908 200.962 462.832 193.107 555.363 195.15" stroke="#151611" stroke-width="0.5" stroke-miterlimit="10"/>
<path d="M214.431 179.678C224.106 178.799 239.096 177.981 257.226 177.227L255.937 149.363C235.56 163.092 214.431 179.678 214.431 179.678Z" fill="#585953"/>
<path d="M362.714 116.629C317.178 117.505 296.453 125.094 273.103 138.52C267.812 141.562 261.907 145.34 255.939 149.362L257.228 177.225C299.596 175.461 359.213 174.05 408.978 173.07L403.7 117.799C390.809 116.792 376.889 116.356 362.714 116.629Z" fill="#FAF3E3"/>
<path d="M465.752 131.515C457.022 125.928 438.153 121.386 414.657 118.824C416.648 126.834 423.359 154.373 426.19 172.742C469.455 171.936 501.656 171.502 501.656 171.502C500.779 168.877 480.346 140.857 465.752 131.515Z" fill="#FAF3E3"/>
<path d="M403.7 117.801L408.978 173.072C414.87 172.956 420.62 172.847 426.191 172.744C423.359 154.373 416.649 126.836 414.657 118.826C411.102 118.437 407.446 118.096 403.7 117.801Z" fill="#585953"/>
<path d="M83.761 247.202C83.761 242.903 80.2767 239.417 75.9762 239.417C71.6778 239.417 68.1914 242.901 68.1914 247.202C68.1914 251.5 71.6756 254.987 75.9762 254.987C80.2767 254.987 83.761 251.502 83.761 247.202Z" fill="#FAF3E3"/>
<path d="M411.89 211.474H406.064C403.17 211.474 400.803 209.107 400.803 206.214V205.032C400.803 202.139 403.17 199.771 406.064 199.771H411.89C414.783 199.771 417.15 202.139 417.15 205.032V206.214C417.15 209.107 414.783 211.474 411.89 211.474Z" fill="#151611"/>
<path d="M424.594 207.812H393.363C392.158 207.812 391.174 206.826 391.174 205.623C391.174 204.418 392.16 203.434 393.363 203.434H424.594C425.799 203.434 426.783 204.42 426.783 205.623C426.783 206.828 425.797 207.812 424.594 207.812Z" fill="#FAF3E3"/>
<path d="M98.5515 202.446C98.5515 202.446 87.8495 201.668 79.0917 217.82C70.3359 233.972 77.3409 232.999 82.0109 230.468C86.681 227.938 111.004 205.559 98.5515 202.446Z" fill="#FAF3E3"/>
<path d="M510.92 390V383.455H511.926V390H510.92ZM511.432 382.364C511.236 382.364 511.067 382.297 510.925 382.163C510.786 382.03 510.716 381.869 510.716 381.682C510.716 381.494 510.786 381.334 510.925 381.2C511.067 381.067 511.236 381 511.432 381C511.628 381 511.795 381.067 511.935 381.2C512.077 381.334 512.148 381.494 512.148 381.682C512.148 381.869 512.077 382.03 511.935 382.163C511.795 382.297 511.628 382.364 511.432 382.364ZM513.768 390V383.455H514.74V384.477H514.825C514.961 384.128 515.181 383.857 515.485 383.663C515.789 383.467 516.154 383.369 516.581 383.369C517.012 383.369 517.372 383.467 517.659 383.663C517.949 383.857 518.174 384.128 518.336 384.477H518.404C518.572 384.139 518.824 383.871 519.159 383.672C519.494 383.47 519.896 383.369 520.365 383.369C520.95 383.369 521.429 383.553 521.801 383.919C522.173 384.283 522.359 384.849 522.359 385.619V390H521.353V385.619C521.353 385.136 521.221 384.791 520.957 384.584C520.693 384.376 520.382 384.273 520.024 384.273C519.564 384.273 519.207 384.412 518.954 384.69C518.701 384.966 518.575 385.315 518.575 385.739V390H517.552V385.517C517.552 385.145 517.431 384.845 517.19 384.618C516.949 384.388 516.637 384.273 516.257 384.273C515.995 384.273 515.751 384.342 515.524 384.482C515.299 384.621 515.118 384.814 514.978 385.061C514.842 385.305 514.774 385.588 514.774 385.909V390H513.768ZM526.124 390.153C525.709 390.153 525.333 390.075 524.995 389.919C524.657 389.76 524.388 389.531 524.189 389.233C523.99 388.932 523.891 388.568 523.891 388.142C523.891 387.767 523.965 387.463 524.113 387.23C524.26 386.994 524.458 386.81 524.705 386.676C524.952 386.543 525.225 386.443 525.523 386.378C525.824 386.31 526.127 386.256 526.431 386.216C526.828 386.165 527.151 386.126 527.398 386.101C527.648 386.072 527.83 386.026 527.944 385.96C528.06 385.895 528.118 385.781 528.118 385.619V385.585C528.118 385.165 528.003 384.838 527.773 384.605C527.546 384.372 527.201 384.256 526.738 384.256C526.257 384.256 525.881 384.361 525.608 384.571C525.336 384.781 525.144 385.006 525.033 385.244L524.078 384.903C524.249 384.506 524.476 384.196 524.76 383.974C525.047 383.75 525.36 383.594 525.698 383.506C526.039 383.415 526.374 383.369 526.703 383.369C526.914 383.369 527.155 383.395 527.428 383.446C527.703 383.494 527.969 383.595 528.225 383.749C528.483 383.902 528.698 384.134 528.868 384.443C529.039 384.753 529.124 385.168 529.124 385.688V390H528.118V389.114H528.067C527.999 389.256 527.885 389.408 527.726 389.57C527.567 389.732 527.355 389.869 527.091 389.983C526.827 390.097 526.505 390.153 526.124 390.153ZM526.277 389.25C526.675 389.25 527.01 389.172 527.283 389.016C527.559 388.859 527.766 388.658 527.905 388.411C528.047 388.163 528.118 387.903 528.118 387.631V386.71C528.076 386.761 527.982 386.808 527.837 386.851C527.695 386.891 527.53 386.926 527.343 386.957C527.158 386.986 526.978 387.011 526.801 387.034C526.628 387.054 526.488 387.071 526.38 387.085C526.118 387.119 525.874 387.175 525.647 387.251C525.422 387.325 525.24 387.437 525.101 387.588C524.965 387.736 524.897 387.937 524.897 388.193C524.897 388.543 525.026 388.807 525.284 388.986C525.546 389.162 525.877 389.25 526.277 389.25ZM533.602 392.591C533.116 392.591 532.698 392.528 532.349 392.403C531.999 392.281 531.708 392.119 531.475 391.918C531.245 391.719 531.062 391.506 530.925 391.278L531.727 390.716C531.817 390.835 531.933 390.972 532.072 391.125C532.211 391.281 532.401 391.416 532.643 391.53C532.887 391.646 533.207 391.705 533.602 391.705C534.13 391.705 534.566 391.577 534.91 391.321C535.254 391.065 535.425 390.665 535.425 390.119V388.79H535.34C535.266 388.909 535.161 389.057 535.025 389.233C534.891 389.406 534.698 389.561 534.445 389.697C534.195 389.831 533.857 389.898 533.431 389.898C532.903 389.898 532.428 389.773 532.008 389.523C531.59 389.273 531.259 388.909 531.015 388.432C530.773 387.955 530.653 387.375 530.653 386.693C530.653 386.023 530.771 385.439 531.006 384.942C531.242 384.442 531.57 384.055 531.991 383.783C532.411 383.507 532.897 383.369 533.448 383.369C533.874 383.369 534.212 383.44 534.462 383.582C534.715 383.722 534.908 383.881 535.042 384.06C535.178 384.236 535.283 384.381 535.357 384.494H535.46V383.455H536.431V390.188C536.431 390.75 536.303 391.207 536.048 391.56C535.795 391.915 535.454 392.175 535.025 392.339C534.599 392.507 534.124 392.591 533.602 392.591ZM533.567 388.994C533.971 388.994 534.312 388.902 534.59 388.717C534.869 388.533 535.08 388.267 535.225 387.92C535.37 387.574 535.442 387.159 535.442 386.676C535.442 386.205 535.371 385.788 535.229 385.428C535.087 385.067 534.877 384.784 534.599 384.58C534.32 384.375 533.977 384.273 533.567 384.273C533.141 384.273 532.786 384.381 532.502 384.597C532.221 384.812 532.009 385.102 531.867 385.466C531.728 385.83 531.658 386.233 531.658 386.676C531.658 387.131 531.729 387.533 531.871 387.882C532.016 388.229 532.229 388.501 532.511 388.7C532.795 388.896 533.147 388.994 533.567 388.994ZM541.016 390.136C540.386 390.136 539.842 389.997 539.384 389.719C538.93 389.438 538.579 389.045 538.332 388.543C538.087 388.037 537.965 387.449 537.965 386.778C537.965 386.108 538.087 385.517 538.332 385.006C538.579 384.491 538.923 384.091 539.363 383.804C539.806 383.514 540.323 383.369 540.914 383.369C541.255 383.369 541.592 383.426 541.924 383.54C542.256 383.653 542.559 383.838 542.832 384.094C543.104 384.347 543.322 384.682 543.484 385.099C543.646 385.517 543.727 386.031 543.727 386.642V387.068H538.681V386.199H542.704C542.704 385.83 542.63 385.5 542.482 385.21C542.337 384.92 542.13 384.692 541.86 384.524C541.593 384.357 541.278 384.273 540.914 384.273C540.513 384.273 540.167 384.372 539.874 384.571C539.585 384.767 539.362 385.023 539.205 385.338C539.049 385.653 538.971 385.991 538.971 386.352V386.932C538.971 387.426 539.056 387.845 539.227 388.189C539.4 388.53 539.64 388.79 539.947 388.969C540.254 389.145 540.61 389.233 541.016 389.233C541.281 389.233 541.519 389.196 541.732 389.122C541.948 389.045 542.134 388.932 542.29 388.781C542.447 388.628 542.567 388.437 542.653 388.21L543.624 388.483C543.522 388.812 543.35 389.102 543.109 389.352C542.867 389.599 542.569 389.793 542.214 389.932C541.859 390.068 541.46 390.136 541.016 390.136ZM549.773 390V390.938H544.319V390H549.773ZM551.233 392.455V383.455H552.205V384.494H552.324C552.398 384.381 552.5 384.236 552.631 384.06C552.764 383.881 552.955 383.722 553.202 383.582C553.452 383.44 553.79 383.369 554.216 383.369C554.767 383.369 555.253 383.507 555.673 383.783C556.094 384.058 556.422 384.449 556.658 384.955C556.893 385.46 557.011 386.057 557.011 386.744C557.011 387.438 556.893 388.038 556.658 388.547C556.422 389.053 556.095 389.445 555.678 389.723C555.26 389.999 554.778 390.136 554.233 390.136C553.813 390.136 553.476 390.067 553.223 389.928C552.97 389.786 552.776 389.625 552.639 389.446C552.503 389.264 552.398 389.114 552.324 388.994H552.239V392.455H551.233ZM552.222 386.727C552.222 387.222 552.294 387.658 552.439 388.036C552.584 388.411 552.795 388.705 553.074 388.918C553.352 389.128 553.693 389.233 554.097 389.233C554.517 389.233 554.868 389.122 555.149 388.901C555.433 388.676 555.646 388.375 555.788 387.997C555.933 387.616 556.006 387.193 556.006 386.727C556.006 386.267 555.935 385.852 555.793 385.483C555.653 385.111 555.442 384.817 555.158 384.601C554.876 384.382 554.523 384.273 554.097 384.273C553.688 384.273 553.344 384.376 553.065 384.584C552.787 384.788 552.577 385.075 552.435 385.445C552.293 385.811 552.222 386.239 552.222 386.727ZM559.551 381.273V390H558.545V381.273H559.551ZM563.319 390.153C562.904 390.153 562.528 390.075 562.19 389.919C561.852 389.76 561.583 389.531 561.385 389.233C561.186 388.932 561.086 388.568 561.086 388.142C561.086 387.767 561.16 387.463 561.308 387.23C561.456 386.994 561.653 386.81 561.9 386.676C562.147 386.543 562.42 386.443 562.718 386.378C563.02 386.31 563.322 386.256 563.626 386.216C564.024 386.165 564.346 386.126 564.593 386.101C564.843 386.072 565.025 386.026 565.139 385.96C565.255 385.895 565.314 385.781 565.314 385.619V385.585C565.314 385.165 565.199 384.838 564.968 384.605C564.741 384.372 564.396 384.256 563.933 384.256C563.453 384.256 563.076 384.361 562.804 384.571C562.531 384.781 562.339 385.006 562.228 385.244L561.274 384.903C561.444 384.506 561.672 384.196 561.956 383.974C562.243 383.75 562.555 383.594 562.893 383.506C563.234 383.415 563.569 383.369 563.899 383.369C564.109 383.369 564.35 383.395 564.623 383.446C564.899 383.494 565.164 383.595 565.42 383.749C565.679 383.902 565.893 384.134 566.064 384.443C566.234 384.753 566.319 385.168 566.319 385.688V390H565.314V389.114H565.262C565.194 389.256 565.081 389.408 564.922 389.57C564.762 389.732 564.551 389.869 564.287 389.983C564.022 390.097 563.7 390.153 563.319 390.153ZM563.473 389.25C563.87 389.25 564.206 389.172 564.478 389.016C564.754 388.859 564.961 388.658 565.1 388.411C565.243 388.163 565.314 387.903 565.314 387.631V386.71C565.271 386.761 565.177 386.808 565.032 386.851C564.89 386.891 564.725 386.926 564.538 386.957C564.353 386.986 564.173 387.011 563.997 387.034C563.824 387.054 563.683 387.071 563.575 387.085C563.314 387.119 563.069 387.175 562.842 387.251C562.618 387.325 562.436 387.437 562.297 387.588C562.16 387.736 562.092 387.937 562.092 388.193C562.092 388.543 562.221 388.807 562.48 388.986C562.741 389.162 563.072 389.25 563.473 389.25ZM570.814 390.136C570.2 390.136 569.672 389.991 569.229 389.702C568.786 389.412 568.445 389.013 568.206 388.504C567.967 387.996 567.848 387.415 567.848 386.761C567.848 386.097 567.97 385.51 568.214 385.001C568.462 384.49 568.805 384.091 569.246 383.804C569.689 383.514 570.206 383.369 570.797 383.369C571.257 383.369 571.672 383.455 572.041 383.625C572.411 383.795 572.713 384.034 572.949 384.341C573.185 384.648 573.331 385.006 573.388 385.415H572.382C572.305 385.116 572.135 384.852 571.871 384.622C571.609 384.389 571.257 384.273 570.814 384.273C570.422 384.273 570.078 384.375 569.783 384.58C569.49 384.781 569.261 385.067 569.097 385.436C568.935 385.803 568.854 386.233 568.854 386.727C568.854 387.233 568.933 387.673 569.092 388.048C569.254 388.423 569.482 388.714 569.774 388.922C570.07 389.129 570.416 389.233 570.814 389.233C571.075 389.233 571.312 389.188 571.526 389.097C571.739 389.006 571.919 388.875 572.067 388.705C572.214 388.534 572.32 388.33 572.382 388.091H573.388C573.331 388.477 573.19 388.825 572.966 389.135C572.744 389.442 572.45 389.686 572.084 389.868C571.72 390.047 571.297 390.136 570.814 390.136ZM577.602 390.136C576.972 390.136 576.428 389.997 575.97 389.719C575.516 389.438 575.165 389.045 574.918 388.543C574.673 388.037 574.551 387.449 574.551 386.778C574.551 386.108 574.673 385.517 574.918 385.006C575.165 384.491 575.509 384.091 575.949 383.804C576.392 383.514 576.909 383.369 577.5 383.369C577.841 383.369 578.178 383.426 578.51 383.54C578.842 383.653 579.145 383.838 579.418 384.094C579.69 384.347 579.908 384.682 580.07 385.099C580.232 385.517 580.312 386.031 580.312 386.642V387.068H575.267V386.199H579.29C579.29 385.83 579.216 385.5 579.068 385.21C578.923 384.92 578.716 384.692 578.446 384.524C578.179 384.357 577.864 384.273 577.5 384.273C577.099 384.273 576.753 384.372 576.46 384.571C576.17 384.767 575.947 385.023 575.791 385.338C575.635 385.653 575.557 385.991 575.557 386.352V386.932C575.557 387.426 575.642 387.845 575.812 388.189C575.986 388.53 576.226 388.79 576.533 388.969C576.839 389.145 577.196 389.233 577.602 389.233C577.866 389.233 578.105 389.196 578.318 389.122C578.534 389.045 578.72 388.932 578.876 388.781C579.033 388.628 579.153 388.437 579.239 388.21L580.21 388.483C580.108 388.812 579.936 389.102 579.695 389.352C579.453 389.599 579.155 389.793 578.8 389.932C578.445 390.068 578.045 390.136 577.602 390.136ZM582.848 386.062V390H581.842V381.273H582.848V384.477H582.933C583.087 384.139 583.317 383.871 583.624 383.672C583.933 383.47 584.345 383.369 584.859 383.369C585.305 383.369 585.696 383.459 586.031 383.638C586.366 383.814 586.626 384.085 586.811 384.452C586.999 384.815 587.092 385.278 587.092 385.841V390H586.087V385.909C586.087 385.389 585.952 384.987 585.682 384.703C585.415 384.416 585.044 384.273 584.57 384.273C584.24 384.273 583.945 384.342 583.683 384.482C583.425 384.621 583.22 384.824 583.07 385.091C582.922 385.358 582.848 385.682 582.848 386.062ZM591.591 390.136C591 390.136 590.482 389.996 590.036 389.714C589.593 389.433 589.246 389.04 588.996 388.534C588.749 388.028 588.625 387.437 588.625 386.761C588.625 386.08 588.749 385.484 588.996 384.976C589.246 384.467 589.593 384.072 590.036 383.791C590.482 383.51 591 383.369 591.591 383.369C592.182 383.369 592.699 383.51 593.142 383.791C593.588 384.072 593.935 384.467 594.182 384.976C594.432 385.484 594.557 386.08 594.557 386.761C594.557 387.437 594.432 388.028 594.182 388.534C593.935 389.04 593.588 389.433 593.142 389.714C592.699 389.996 592.182 390.136 591.591 390.136ZM591.591 389.233C592.04 389.233 592.409 389.118 592.699 388.888C592.989 388.658 593.203 388.355 593.343 387.98C593.482 387.605 593.551 387.199 593.551 386.761C593.551 386.324 593.482 385.916 593.343 385.538C593.203 385.161 592.989 384.855 592.699 384.622C592.409 384.389 592.04 384.273 591.591 384.273C591.142 384.273 590.773 384.389 590.483 384.622C590.194 384.855 589.979 385.161 589.84 385.538C589.701 385.916 589.631 386.324 589.631 386.761C589.631 387.199 589.701 387.605 589.84 387.98C589.979 388.355 590.194 388.658 590.483 388.888C590.773 389.118 591.142 389.233 591.591 389.233ZM597.098 381.273V390H596.092V381.273H597.098ZM601.412 390.136C600.866 390.136 600.385 389.999 599.967 389.723C599.549 389.445 599.223 389.053 598.987 388.547C598.751 388.038 598.633 387.438 598.633 386.744C598.633 386.057 598.751 385.46 598.987 384.955C599.223 384.449 599.551 384.058 599.971 383.783C600.392 383.507 600.877 383.369 601.429 383.369C601.855 383.369 602.191 383.44 602.439 383.582C602.689 383.722 602.879 383.881 603.01 384.06C603.143 384.236 603.247 384.381 603.321 384.494H603.406V381.273H604.412V390H603.44V388.994H603.321C603.247 389.114 603.142 389.264 603.005 389.446C602.869 389.625 602.674 389.786 602.422 389.928C602.169 390.067 601.832 390.136 601.412 390.136ZM601.548 389.233C601.951 389.233 602.292 389.128 602.571 388.918C602.849 388.705 603.061 388.411 603.206 388.036C603.35 387.658 603.423 387.222 603.423 386.727C603.423 386.239 603.352 385.811 603.21 385.445C603.068 385.075 602.858 384.788 602.579 384.584C602.301 384.376 601.957 384.273 601.548 384.273C601.122 384.273 600.767 384.382 600.483 384.601C600.201 384.817 599.99 385.111 599.848 385.483C599.708 385.852 599.639 386.267 599.639 386.727C599.639 387.193 599.71 387.616 599.852 387.997C599.997 388.375 600.21 388.676 600.491 388.901C600.775 389.122 601.127 389.233 601.548 389.233ZM609.137 390.136C608.507 390.136 607.963 389.997 607.505 389.719C607.051 389.438 606.7 389.045 606.453 388.543C606.208 388.037 606.086 387.449 606.086 386.778C606.086 386.108 606.208 385.517 606.453 385.006C606.7 384.491 607.044 384.091 607.484 383.804C607.927 383.514 608.444 383.369 609.035 383.369C609.376 383.369 609.713 383.426 610.045 383.54C610.377 383.653 610.68 383.838 610.953 384.094C611.225 384.347 611.443 384.682 611.605 385.099C611.767 385.517 611.848 386.031 611.848 386.642V387.068H606.802V386.199H610.825C610.825 385.83 610.751 385.5 610.603 385.21C610.458 384.92 610.251 384.692 609.981 384.524C609.714 384.357 609.399 384.273 609.035 384.273C608.635 384.273 608.288 384.372 607.995 384.571C607.706 384.767 607.483 385.023 607.326 385.338C607.17 385.653 607.092 385.991 607.092 386.352V386.932C607.092 387.426 607.177 387.845 607.348 388.189C607.521 388.53 607.761 388.79 608.068 388.969C608.375 389.145 608.731 389.233 609.137 389.233C609.402 389.233 609.64 389.196 609.853 389.122C610.069 389.045 610.255 388.932 610.412 388.781C610.568 388.628 610.689 388.437 610.774 388.21L611.745 388.483C611.643 388.812 611.471 389.102 611.23 389.352C610.988 389.599 610.69 389.793 610.335 389.932C609.98 390.068 609.581 390.136 609.137 390.136ZM613.377 390V383.455H614.349V384.443H614.417C614.537 384.119 614.752 383.857 615.065 383.655C615.377 383.453 615.73 383.352 616.122 383.352C616.196 383.352 616.288 383.354 616.399 383.357C616.51 383.359 616.593 383.364 616.65 383.369V384.392C616.616 384.384 616.538 384.371 616.416 384.354C616.297 384.334 616.17 384.324 616.037 384.324C615.718 384.324 615.434 384.391 615.184 384.524C614.937 384.655 614.741 384.837 614.596 385.07C614.454 385.3 614.383 385.562 614.383 385.858V390H613.377ZM625.734 390V390.938H620.28V390H625.734ZM628.393 381.273V390H627.337V382.381H627.286L625.155 383.795V382.722L627.337 381.273H628.393Z" fill="#6A6A6A"/>
</svg>
