<?xml version="1.0" encoding="iso-8859-1"?>
<!-- Uploaded to: SVG Repo, www.svgrepo.com, Generator: SVG Repo Mixer Tools -->
<svg fill="#000000" height="800px" width="800px" version="1.1" id="Layer_1" xmlns="http://www.w3.org/2000/svg" xmlns:xlink="http://www.w3.org/1999/xlink" 
	 viewBox="0 0 512 512" xml:space="preserve">
<g>
	<g>
		<g>
			<path d="M416,21.333h21.333C443.2,21.333,448,26.133,448,32v21.333C448,59.221,452.779,64,458.667,64s10.667-4.779,10.667-10.667
				V32c0-17.643-14.357-32-32-32H416c-5.888,0-10.667,4.779-10.667,10.667S410.112,21.333,416,21.333z"/>
			<path d="M53.333,64C59.221,64,64,59.221,64,53.333V32c0-5.867,4.8-10.667,10.667-10.667H96c5.888,0,10.667-4.779,10.667-10.667
				S101.888,0,96,0H74.667c-17.643,0-32,14.357-32,32v21.333C42.667,59.221,47.445,64,53.333,64z"/>
			<path d="M32,192h448c5.888,0,10.667-4.779,10.667-10.667s-4.779-10.667-10.667-10.667h-79.808
				c-3.072-8.853-9.728-15.915-18.368-19.2l1.963-40.171l7.979-7.979c12.011-12.8,21.973-34.709,1.152-66.475
				C376.917,12.395,349.739,0,312.128,0c-14.827,0-49.024,0-80.875,21.376C140.352,23.275,128,65.472,128,106.667
				c0,9.6,2.325,31.189,3.861,44.181c-9.344,3.051-16.747,10.453-20.053,19.819H32c-5.888,0-10.667,4.779-10.667,10.667
				S26.112,192,32,192z"/>
			<path d="M421.184,384.96l-81.728-20.416l-6.955-27.819c21.867-21.653,36.864-51.392,41.301-81.92
				c12.117-3.392,21.504-13.803,23.125-26.837l0.341-2.645c0.384-3.051-0.555-6.08-2.581-8.405
				c-2.048-2.261-4.949-3.584-8.021-3.584H125.333c-3.072,0-5.973,1.323-8,3.605c-2.027,2.304-2.965,5.355-2.581,8.405l0.341,2.645
				c1.728,13.888,12.309,24.832,25.643,27.435c4.437,29.312,18.624,58.112,39.232,79.403l-7.424,29.739l-81.728,20.416
				C37.333,398.336,0,446.187,0,501.333C0,507.221,4.779,512,10.667,512h490.667c5.888,0,10.667-4.821,10.667-10.709
				C512,446.187,474.667,398.336,421.184,384.96z"/>
			<path d="M53.333,298.667c-5.888,0-10.667,4.779-10.667,10.667v21.333c0,17.643,14.357,32,32,32H96
				c5.888,0,10.667-4.779,10.667-10.667c0-5.888-4.779-10.667-10.667-10.667H74.667c-5.867,0-10.667-4.8-10.667-10.667v-21.333
				C64,303.445,59.221,298.667,53.333,298.667z"/>
			<path d="M448,309.333v21.333c0,5.867-4.8,10.667-10.667,10.667H416c-5.888,0-10.667,4.779-10.667,10.667
				c0,5.888,4.779,10.667,10.667,10.667h21.333c17.643,0,32-14.357,32-32v-21.333c0-5.888-4.779-10.667-10.667-10.667
				S448,303.445,448,309.333z"/>
		</g>
	</g>
</g>
</svg>